<?xml version="1.0" encoding="UTF-8" standalone="no"?>
<!DOCTYPE svg PUBLIC "-//W3C//DTD SVG 1.1//EN"
 "http://www.w3.org/Graphics/SVG/1.1/DTD/svg11.dtd">
<!-- Generated by graphviz version 15.1.1 (20260805.0921)
 -->
<!-- Title: IR_Acquire Pages: 1 -->
<svg width="223pt" height="270pt"
 viewBox="0.00 0.00 223.00 270.00" xmlns="http://www.w3.org/2000/svg" xmlns:xlink="http://www.w3.org/1999/xlink">
<g id="graph0" class="graph" transform="scale(1 1) rotate(0) translate(4 266)">
<title>IR_Acquire</title>
<!-- Node1 -->
<g id="Node000001" class="node">
<title>Node1</title>
<g id="a_Node000001"><a xlink:title="Read one ADC sample set from all four receivers into out[].">
<polygon fill="#999999" stroke="#666666" points="64.75,-132 0,-132 0,-112 64.75,-112 64.75,-132"/>
<text xml:space="preserve" text-anchor="middle" x="32.38" y="-118.5" font-family="Helvetica,sans-Serif" font-size="10.00">IR_Acquire</text>
</a>
</g>
</g>
<!-- Node1&#45;&gt;Node1 -->
<g id="edge9_Node000001_Node000001" class="edge">
<title>Node1&#45;&gt;Node1</title>
<g id="a_edge9_Node000001_Node000001"><a xlink:title=" ">
<path fill="none" stroke="#63b8ff" d="M12.43,-132.34C3.91,-140.98 10.56,-150 32.38,-150 44.31,-150 51.7,-147.3 54.56,-143.44"/>
<polygon fill="#63b8ff" stroke="#63b8ff" points="58.02,-142.93 52.62,-133.82 51.16,-144.32 58.02,-142.93"/>
</a>
</g>
</g>
<!-- Node2 -->
<g id="Node000002" class="node">
<title>Node2</title>
<g id="a_Node000002"><a xlink:href="adc_8c.html#a0a1ab6bb2c7dae03cc9cb78909774a47" target="_top" xlink:title="Trigger a single&#45;conversion pair on ADC Unit A and read both results.">
<polygon fill="white" stroke="#666666" points="200.75,-244 115,-244 115,-224 200.75,-224 200.75,-244"/>
<text xml:space="preserve" text-anchor="middle" x="157.88" y="-230.5" font-family="Helvetica,sans-Serif" font-size="10.00">AINA_ReadPair</text>
</a>
</g>
</g>
<!-- Node1&#45;&gt;Node2 -->
<g id="edge1_Node000001_Node000002" class="edge">
<title>Node1&#45;&gt;Node2</title>
<g id="a_edge1_Node000001_Node000002"><a xlink:title=" ">
<path fill="none" stroke="#63b8ff" d="M38.12,-132.27C47.44,-151.33 69.93,-192.29 100.75,-215 102.49,-216.28 104.32,-217.48 106.22,-218.6"/>
<polygon fill="#63b8ff" stroke="#63b8ff" points="104.27,-221.54 114.77,-222.91 107.41,-215.29 104.27,-221.54"/>
</a>
</g>
</g>
<!-- Node3 -->
<g id="Node000003" class="node">
<title>Node3</title>
<g id="a_Node000003"><a xlink:href="adc_8c.html#ab67f251f0a347c9873708d94f76a4b2a" target="_top" xlink:title="Trigger a single&#45;conversion pair on ADC Unit C and read both results.">
<polygon fill="white" stroke="#666666" points="201.12,-188 114.62,-188 114.62,-168 201.12,-168 201.12,-188"/>
<text xml:space="preserve" text-anchor="middle" x="157.88" y="-174.5" font-family="Helvetica,sans-Serif" font-size="10.00">AINC_ReadPair</text>
</a>
</g>
</g>
<!-- Node1&#45;&gt;Node3 -->
<g id="edge3_Node000001_Node000003" class="edge">
<title>Node1&#45;&gt;Node3</title>
<g id="a_edge3_Node000001_Node000003"><a xlink:title=" ">
<path fill="none" stroke="#63b8ff" d="M50.4,-132.44C63.77,-140.37 83.04,-151.21 100.75,-159 104.5,-160.65 108.45,-162.25 112.43,-163.77"/>
<polygon fill="#63b8ff" stroke="#63b8ff" points="110.95,-166.95 121.55,-167.08 113.34,-160.37 110.95,-166.95"/>
</a>
</g>
</g>
<!-- Node4 -->
<g id="Node000004" class="node">
<title>Node4</title>
<g id="a_Node000004"><a xlink:href="dma_8c.html#a325481bdc955de0cfb6e44763d933ed6" target="_top" xlink:title="Get pointer to ADC Unit A DMA result buffer.">
<polygon fill="white" stroke="#666666" points="214.62,-132 101.12,-132 101.12,-112 214.62,-112 214.62,-132"/>
<text xml:space="preserve" text-anchor="middle" x="157.88" y="-118.5" font-family="Helvetica,sans-Serif" font-size="10.00">DMA_GetADCABuffer</text>
</a>
</g>
</g>
<!-- Node1&#45;&gt;Node4 -->
<g id="edge5_Node000001_Node000004" class="edge">
<title>Node1&#45;&gt;Node4</title>
<g id="a_edge5_Node000001_Node000004"><a xlink:title=" ">
<path fill="none" stroke="#63b8ff" d="M65.18,-122C72.65,-122 80.89,-122 89.27,-122"/>
<polygon fill="#63b8ff" stroke="#63b8ff" points="89.22,-125.5 99.22,-122 89.22,-118.5 89.22,-125.5"/>
</a>
</g>
</g>
<!-- Node5 -->
<g id="Node000005" class="node">
<title>Node5</title>
<g id="a_Node000005"><a xlink:href="dma_8c.html#a77b002b98eecc600caee51ed6432a6a3" target="_top" xlink:title="Get pointer to ADC Unit C DMA result buffer.">
<polygon fill="white" stroke="#666666" points="215,-76 100.75,-76 100.75,-56 215,-56 215,-76"/>
<text xml:space="preserve" text-anchor="middle" x="157.88" y="-62.5" font-family="Helvetica,sans-Serif" font-size="10.00">DMA_GetADCCBuffer</text>
</a>
</g>
</g>
<!-- Node1&#45;&gt;Node5 -->
<g id="edge7_Node000001_Node000005" class="edge">
<title>Node1&#45;&gt;Node5</title>
<g id="a_edge7_Node000001_Node000005"><a xlink:title=" ">
<path fill="none" stroke="#63b8ff" d="M56.31,-111.6C75.29,-102.99 102.49,-90.66 123.82,-80.99"/>
<polygon fill="#63b8ff" stroke="#63b8ff" points="125.02,-84.29 132.68,-76.97 122.13,-77.91 125.02,-84.29"/>
</a>
</g>
</g>
<!-- Node6 -->
<g id="Node000006" class="node">
<title>Node6</title>
<g id="a_Node000006"><a xlink:href="systick_8c.html#ad9af3d080726acc5f1003de96ee90bb5" target="_top" xlink:title="Blocking delay in microseconds.">
<polygon fill="white" stroke="#666666" points="191.75,-20 124,-20 124,0 191.75,0 191.75,-20"/>
<text xml:space="preserve" text-anchor="middle" x="157.88" y="-6.5" font-family="Helvetica,sans-Serif" font-size="10.00">SysTick_us</text>
</a>
</g>
</g>
<!-- Node1&#45;&gt;Node6 -->
<g id="edge10_Node000001_Node000006" class="edge">
<title>Node1&#45;&gt;Node6</title>
<g id="a_edge10_Node000001_Node000006"><a xlink:title=" ">
<path fill="none" stroke="#63b8ff" d="M41.35,-111.53C53.27,-96.28 76.88,-67.56 100.75,-47 109.39,-39.56 119.6,-32.41 128.94,-26.42"/>
<polygon fill="#63b8ff" stroke="#63b8ff" points="130.68,-29.46 137.32,-21.2 126.98,-23.51 130.68,-29.46"/>
</a>
</g>
</g>
<!-- Node2&#45;&gt;Node2 -->
<g id="edge2_Node000002_Node000002" class="edge">
<title>Node2&#45;&gt;Node2</title>
<g id="a_edge2_Node000002_Node000002"><a xlink:title=" ">
<path fill="none" stroke="#63b8ff" d="M137.93,-244.34C129.41,-252.98 136.06,-262 157.88,-262 169.81,-262 177.2,-259.3 180.06,-255.44"/>
<polygon fill="#63b8ff" stroke="#63b8ff" points="183.52,-254.93 178.12,-245.82 176.66,-256.32 183.52,-254.93"/>
</a>
</g>
</g>
<!-- Node3&#45;&gt;Node3 -->
<g id="edge4_Node000003_Node000003" class="edge">
<title>Node3&#45;&gt;Node3</title>
<g id="a_edge4_Node000003_Node000003"><a xlink:title=" ">
<path fill="none" stroke="#63b8ff" d="M137.93,-188.34C129.41,-196.98 136.06,-206 157.88,-206 169.81,-206 177.2,-203.3 180.06,-199.44"/>
<polygon fill="#63b8ff" stroke="#63b8ff" points="183.52,-198.93 178.12,-189.82 176.66,-200.32 183.52,-198.93"/>
</a>
</g>
</g>
<!-- Node4&#45;&gt;Node4 -->
<g id="edge6_Node000004_Node000004" class="edge">
<title>Node4&#45;&gt;Node4</title>
<g id="a_edge6_Node000004_Node000004"><a xlink:title=" ">
<path fill="none" stroke="#63b8ff" d="M137.93,-132.34C129.41,-140.98 136.06,-150 157.88,-150 169.81,-150 177.2,-147.3 180.06,-143.44"/>
<polygon fill="#63b8ff" stroke="#63b8ff" points="183.52,-142.93 178.12,-133.82 176.66,-144.32 183.52,-142.93"/>
</a>
</g>
</g>
<!-- Node5&#45;&gt;Node5 -->
<g id="edge8_Node000005_Node000005" class="edge">
<title>Node5&#45;&gt;Node5</title>
<g id="a_edge8_Node000005_Node000005"><a xlink:title=" ">
<path fill="none" stroke="#63b8ff" d="M137.93,-76.34C129.41,-84.98 136.06,-94 157.88,-94 169.81,-94 177.2,-91.3 180.06,-87.44"/>
<polygon fill="#63b8ff" stroke="#63b8ff" points="183.52,-86.93 178.12,-77.82 176.66,-88.32 183.52,-86.93"/>
</a>
</g>
</g>
<!-- Node6&#45;&gt;Node6 -->
<g id="edge11_Node000006_Node000006" class="edge">
<title>Node6&#45;&gt;Node6</title>
<g id="a_edge11_Node000006_Node000006"><a xlink:title=" ">
<path fill="none" stroke="#63b8ff" d="M137.93,-20.34C129.41,-28.98 136.06,-38 157.88,-38 169.81,-38 177.2,-35.3 180.06,-31.44"/>
<polygon fill="#63b8ff" stroke="#63b8ff" points="183.52,-30.93 178.12,-21.82 176.66,-32.32 183.52,-30.93"/>
</a>
</g>
</g>
</g>
</svg>
