<?xml version="1.0" encoding="UTF-8" standalone="no"?>
<!DOCTYPE svg PUBLIC "-//W3C//DTD SVG 1.1//EN"
 "http://www.w3.org/Graphics/SVG/1.1/DTD/svg11.dtd">
<!-- Generated by graphviz version 15.1.1 (20260805.0921)
 -->
<!-- Title: Motor_Set Pages: 1 -->
<svg width="527pt" height="102pt"
 viewBox="0.00 0.00 527.00 102.00" xmlns="http://www.w3.org/2000/svg" xmlns:xlink="http://www.w3.org/1999/xlink">
<g id="graph0" class="graph" transform="scale(1 1) rotate(0) translate(4 98)">
<title>Motor_Set</title>
<!-- Node1 -->
<g id="Node000001" class="node">
<title>Node1</title>
<g id="a_Node000001"><a xlink:title=" ">
<polygon fill="#999999" stroke="#666666" points="518.75,-48 457.75,-48 457.75,-28 518.75,-28 518.75,-48"/>
<text xml:space="preserve" text-anchor="middle" x="488.25" y="-34.5" font-family="Helvetica,sans-Serif" font-size="10.00">Motor_Set</text>
</a>
</g>
</g>
<!-- Node1&#45;&gt;Node1 -->
<g id="edge15_Node000001_Node000001" class="edge">
<title>Node1&#45;&gt;Node1</title>
<g id="a_edge15_Node000001_Node000001"><a xlink:title=" ">
<path fill="none" stroke="#63b8ff" d="M509.24,-59.44C506.53,-63.3 499.54,-66 488.25,-66 467.61,-66 461.32,-56.98 469.38,-48.34"/>
<polygon fill="#63b8ff" stroke="#63b8ff" points="512.72,-58.99 507.4,-49.83 505.84,-60.3 512.72,-58.99"/>
</a>
</g>
</g>
<!-- Node2 -->
<g id="Node000002" class="node">
<title>Node2</title>
<g id="a_Node000002"><a xlink:href="_motion_8c.html#aa20083cfa17fb2ab40a445c13b855966" target="_top" xlink:title="Convert PID output to motor direction and duty.">
<polygon fill="white" stroke="#666666" points="421.75,-76 317.25,-76 317.25,-56 421.75,-56 421.75,-76"/>
<text xml:space="preserve" text-anchor="middle" x="369.5" y="-62.5" font-family="Helvetica,sans-Serif" font-size="10.00">Motion_ApplyOutput</text>
</a>
</g>
</g>
<!-- Node1&#45;&gt;Node2 -->
<g id="edge1_Node000001_Node000002" class="edge">
<title>Node1&#45;&gt;Node2</title>
<g id="a_edge1_Node000001_Node000002"><a xlink:title=" ">
<path fill="none" stroke="#63b8ff" d="M446.46,-47.78C435.92,-50.31 424.54,-53.04 413.87,-55.6"/>
<polygon fill="#63b8ff" stroke="#63b8ff" points="447.11,-51.23 456.02,-45.49 445.47,-44.42 447.11,-51.23"/>
</a>
</g>
</g>
<!-- Node7 -->
<g id="Node000007" class="node">
<title>Node7</title>
<g id="a_Node000007"><a xlink:href="_motion_8c.html#a4fcf5068d6c04dbe566eb8e92b76f909" target="_top" xlink:title="Stop immediately.">
<polygon fill="white" stroke="#666666" points="404.88,-20 334.12,-20 334.12,0 404.88,0 404.88,-20"/>
<text xml:space="preserve" text-anchor="middle" x="369.5" y="-6.5" font-family="Helvetica,sans-Serif" font-size="10.00">Motion_Stop</text>
</a>
</g>
</g>
<!-- Node1&#45;&gt;Node7 -->
<g id="edge10_Node000001_Node000007" class="edge">
<title>Node1&#45;&gt;Node7</title>
<g id="a_edge10_Node000001_Node000007"><a xlink:title=" ">
<path fill="none" stroke="#63b8ff" d="M446.55,-28.24C433.06,-25 418.18,-21.43 405.18,-18.32"/>
<polygon fill="#63b8ff" stroke="#63b8ff" points="445.47,-31.58 456.02,-30.51 447.11,-24.77 445.47,-31.58"/>
</a>
</g>
</g>
<!-- Node2&#45;&gt;Node2 -->
<g id="edge2_Node000002_Node000002" class="edge">
<title>Node2&#45;&gt;Node2</title>
<g id="a_edge2_Node000002_Node000002"><a xlink:title=" ">
<path fill="none" stroke="#63b8ff" d="M390.49,-87.44C387.78,-91.3 380.79,-94 369.5,-94 348.86,-94 342.57,-84.98 350.63,-76.34"/>
<polygon fill="#63b8ff" stroke="#63b8ff" points="393.97,-86.99 388.65,-77.83 387.09,-88.3 393.97,-86.99"/>
</a>
</g>
</g>
<!-- Node3 -->
<g id="Node000003" class="node">
<title>Node3</title>
<g id="a_Node000003"><a xlink:href="_motion_8c.html#a47cf1896361b4c623fb00a5ab7673c56" target="_top" xlink:title="Run one PID control tick.">
<polygon fill="white" stroke="#666666" points="274.88,-76 192.88,-76 192.88,-56 274.88,-56 274.88,-76"/>
<text xml:space="preserve" text-anchor="middle" x="233.88" y="-62.5" font-family="Helvetica,sans-Serif" font-size="10.00">Motion_Update</text>
</a>
</g>
</g>
<!-- Node2&#45;&gt;Node3 -->
<g id="edge3_Node000002_Node000003" class="edge">
<title>Node2&#45;&gt;Node3</title>
<g id="a_edge3_Node000002_Node000003"><a xlink:title=" ">
<path fill="none" stroke="#63b8ff" d="M305.36,-66C295.1,-66 284.73,-66 275.21,-66"/>
<polygon fill="#63b8ff" stroke="#63b8ff" points="305.32,-69.5 315.32,-66 305.32,-62.5 305.32,-69.5"/>
</a>
</g>
</g>
<!-- Node3&#45;&gt;Node3 -->
<g id="edge6_Node000003_Node000003" class="edge">
<title>Node3&#45;&gt;Node3</title>
<g id="a_edge6_Node000003_Node000003"><a xlink:title=" ">
<path fill="none" stroke="#63b8ff" d="M255.46,-87.44C252.68,-91.3 245.48,-94 233.88,-94 212.65,-94 206.18,-84.98 214.47,-76.34"/>
<polygon fill="#63b8ff" stroke="#63b8ff" points="258.93,-86.96 253.57,-77.82 252.06,-88.31 258.93,-86.96"/>
</a>
</g>
</g>
<!-- Node4 -->
<g id="Node000004" class="node">
<title>Node4</title>
<g id="a_Node000004"><a xlink:href="main_8c.html#a840291bc02cba5474a4cb46a9b9566fe" target="_top" xlink:title=" ">
<polygon fill="white" stroke="#666666" points="130.25,-20 93.25,-20 93.25,0 130.25,0 130.25,-20"/>
<text xml:space="preserve" text-anchor="middle" x="111.75" y="-6.5" font-family="Helvetica,sans-Serif" font-size="10.00">main</text>
</a>
</g>
</g>
<!-- Node3&#45;&gt;Node4 -->
<g id="edge4_Node000003_Node000004" class="edge">
<title>Node3&#45;&gt;Node4</title>
<g id="a_edge4_Node000003_Node000004"><a xlink:title=" ">
<path fill="none" stroke="#63b8ff" d="M196.24,-51.29C192.93,-49.88 189.65,-48.43 186.5,-47 167.2,-38.22 145.57,-27.23 130.75,-19.51"/>
<polygon fill="#63b8ff" stroke="#63b8ff" points="194.76,-54.47 205.33,-55.11 197.46,-48.01 194.76,-54.47"/>
</a>
</g>
</g>
<!-- Node5 -->
<g id="Node000005" class="node">
<title>Node5</title>
<g id="a_Node000005"><a xlink:href="_module_test_8c.html#a6d3b3560cd07a79f42c26e611240121d" target="_top" xlink:title="Run one profiled pivot, then hold and keep streaming.">
<polygon fill="white" stroke="#666666" points="150.5,-76 73,-76 73,-56 150.5,-56 150.5,-76"/>
<text xml:space="preserve" text-anchor="middle" x="111.75" y="-62.5" font-family="Helvetica,sans-Serif" font-size="10.00">TurnTest_Run</text>
</a>
</g>
</g>
<!-- Node3&#45;&gt;Node5 -->
<g id="edge7_Node000003_Node000005" class="edge">
<title>Node3&#45;&gt;Node5</title>
<g id="a_edge7_Node000003_Node000005"><a xlink:title=" ">
<path fill="none" stroke="#63b8ff" d="M181.2,-66C170.97,-66 160.42,-66 150.74,-66"/>
<polygon fill="#63b8ff" stroke="#63b8ff" points="181.03,-69.5 191.03,-66 181.03,-62.5 181.03,-69.5"/>
</a>
</g>
</g>
<!-- Node4&#45;&gt;Node4 -->
<g id="edge5_Node000004_Node000004" class="edge">
<title>Node4&#45;&gt;Node4</title>
<g id="a_edge5_Node000004_Node000004"><a xlink:title=" ">
<path fill="none" stroke="#63b8ff" d="M128.23,-31.44C126.11,-35.3 120.61,-38 111.75,-38 95.54,-38 90.6,-28.98 96.93,-20.34"/>
<polygon fill="#63b8ff" stroke="#63b8ff" points="131.74,-31.21 126.79,-21.84 124.81,-32.24 131.74,-31.21"/>
</a>
</g>
</g>
<!-- Node5&#45;&gt;Node5 -->
<g id="edge9_Node000005_Node000005" class="edge">
<title>Node5&#45;&gt;Node5</title>
<g id="a_edge9_Node000005_Node000005"><a xlink:title=" ">
<path fill="none" stroke="#63b8ff" d="M128.23,-87.44C126.11,-91.3 120.61,-94 111.75,-94 95.54,-94 90.6,-84.98 96.93,-76.34"/>
<polygon fill="#63b8ff" stroke="#63b8ff" points="131.74,-87.21 126.79,-77.84 124.81,-88.24 131.74,-87.21"/>
</a>
</g>
</g>
<!-- Node6 -->
<g id="Node000006" class="node">
<title>Node6</title>
<g id="a_Node000006"><a xlink:href="_module_test_8c.html#a840291bc02cba5474a4cb46a9b9566fe" target="_top" xlink:title=" ">
<polygon fill="white" stroke="#666666" points="37,-76 0,-76 0,-56 37,-56 37,-76"/>
<text xml:space="preserve" text-anchor="middle" x="18.5" y="-62.5" font-family="Helvetica,sans-Serif" font-size="10.00">main</text>
</a>
</g>
</g>
<!-- Node5&#45;&gt;Node6 -->
<g id="edge8_Node000005_Node000006" class="edge">
<title>Node5&#45;&gt;Node6</title>
<g id="a_edge8_Node000005_Node000006"><a xlink:title=" ">
<path fill="none" stroke="#63b8ff" d="M61.23,-66C52.6,-66 44.15,-66 37.14,-66"/>
<polygon fill="#63b8ff" stroke="#63b8ff" points="61.07,-69.5 71.07,-66 61.07,-62.5 61.07,-69.5"/>
</a>
</g>
</g>
<!-- Node7&#45;&gt;Node7 -->
<g id="edge11_Node000007_Node000007" class="edge">
<title>Node7&#45;&gt;Node7</title>
<g id="a_edge11_Node000007_Node000007"><a xlink:title=" ">
<path fill="none" stroke="#63b8ff" d="M390.49,-31.44C387.78,-35.3 380.79,-38 369.5,-38 348.86,-38 342.57,-28.98 350.63,-20.34"/>
<polygon fill="#63b8ff" stroke="#63b8ff" points="393.97,-30.99 388.65,-21.83 387.09,-32.3 393.97,-30.99"/>
</a>
</g>
</g>
<!-- Node8 -->
<g id="Node000008" class="node">
<title>Node8</title>
<g id="a_Node000008"><a xlink:href="_navigator_8c.html#a9b3a0072f38ba40f05861eb358e087cb" target="_top" xlink:title="Advance the state machine by one tick.">
<polygon fill="white" stroke="#666666" points="281.25,-20 186.5,-20 186.5,0 281.25,0 281.25,-20"/>
<text xml:space="preserve" text-anchor="middle" x="233.88" y="-6.5" font-family="Helvetica,sans-Serif" font-size="10.00">Navigator_Update</text>
</a>
</g>
</g>
<!-- Node7&#45;&gt;Node8 -->
<g id="edge12_Node000007_Node000008" class="edge">
<title>Node7&#45;&gt;Node8</title>
<g id="a_edge12_Node000007_Node000008"><a xlink:title=" ">
<path fill="none" stroke="#63b8ff" d="M322.48,-10C309.25,-10 294.81,-10 281.54,-10"/>
<polygon fill="#63b8ff" stroke="#63b8ff" points="322.23,-13.5 332.23,-10 322.23,-6.5 322.23,-13.5"/>
</a>
</g>
</g>
<!-- Node8&#45;&gt;Node4 -->
<g id="edge13_Node000008_Node000004" class="edge">
<title>Node8&#45;&gt;Node4</title>
<g id="a_edge13_Node000008_Node000004"><a xlink:title=" ">
<path fill="none" stroke="#63b8ff" d="M174.97,-10C158.78,-10 142.38,-10 130.48,-10"/>
<polygon fill="#63b8ff" stroke="#63b8ff" points="174.57,-13.5 184.57,-10 174.57,-6.5 174.57,-13.5"/>
</a>
</g>
</g>
<!-- Node8&#45;&gt;Node8 -->
<g id="edge14_Node000008_Node000008" class="edge">
<title>Node8&#45;&gt;Node8</title>
<g id="a_edge14_Node000008_Node000008"><a xlink:title=" ">
<path fill="none" stroke="#63b8ff" d="M255.46,-31.44C252.68,-35.3 245.48,-38 233.88,-38 212.65,-38 206.18,-28.98 214.47,-20.34"/>
<polygon fill="#63b8ff" stroke="#63b8ff" points="258.93,-30.96 253.57,-21.82 252.06,-32.31 258.93,-30.96"/>
</a>
</g>
</g>
</g>
</svg>
