<?xml version="1.0" encoding="UTF-8" standalone="no"?>
<!DOCTYPE svg PUBLIC "-//W3C//DTD SVG 1.1//EN"
 "http://www.w3.org/Graphics/SVG/1.1/DTD/svg11.dtd">
<!-- Generated by graphviz version 15.1.1 (20260805.0921)
 -->
<!-- Title: src/modules/Navigator.h Pages: 1 -->
<svg width="132pt" height="140pt"
 viewBox="0.00 0.00 132.00 140.00" xmlns="http://www.w3.org/2000/svg" xmlns:xlink="http://www.w3.org/1999/xlink">
<g id="graph0" class="graph" transform="scale(1 1) rotate(0) translate(4 136)">
<title>src/modules/Navigator.h</title>
<!-- Node1 -->
<g id="Node000001" class="node">
<title>Node1</title>
<g id="a_Node000001"><a xlink:title="Robot behavior logic handler. combines FloodFill, optometry, &amp; motion controls.">
<polygon fill="#999999" stroke="#666666" points="122.5,-132 0,-132 0,-112 122.5,-112 122.5,-132"/>
<text xml:space="preserve" text-anchor="middle" x="61.25" y="-118.5" font-family="Helvetica,sans-Serif" font-size="10.00">src/modules/Navigator.h</text>
</a>
</g>
</g>
<!-- Node2 -->
<g id="Node000002" class="node">
<title>Node2</title>
<g id="a_Node000002"><a xlink:href="_flood_fill_8h.html" target="_top" xlink:title="Flood fill path planner for a micromouse maze.">
<polygon fill="white" stroke="#666666" points="91.75,-76 30.75,-76 30.75,-56 91.75,-56 91.75,-76"/>
<text xml:space="preserve" text-anchor="middle" x="61.25" y="-62.5" font-family="Helvetica,sans-Serif" font-size="10.00">FloodFill.h</text>
</a>
</g>
</g>
<!-- Node1&#45;&gt;Node2 -->
<g id="edge1_Node000001_Node000002" class="edge">
<title>Node1&#45;&gt;Node2</title>
<g id="a_edge1_Node000001_Node000002"><a xlink:title=" ">
<path fill="none" stroke="#63b8ff" d="M61.25,-111.59C61.25,-105.01 61.25,-95.96 61.25,-87.73"/>
<polygon fill="#63b8ff" stroke="#63b8ff" points="64.75,-87.81 61.25,-77.81 57.75,-87.81 64.75,-87.81"/>
</a>
</g>
</g>
<!-- Node3 -->
<g id="Node000003" class="node">
<title>Node3</title>
<g id="a_Node000003"><a xlink:title=" ">
<polygon fill="#e0e0e0" stroke="#999999" points="50.38,-20 2.12,-20 2.12,0 50.38,0 50.38,-20"/>
<text xml:space="preserve" text-anchor="middle" x="26.25" y="-6.5" font-family="Helvetica,sans-Serif" font-size="10.00">stdint.h</text>
</a>
</g>
</g>
<!-- Node2&#45;&gt;Node3 -->
<g id="edge2_Node000002_Node000003" class="edge">
<title>Node2&#45;&gt;Node3</title>
<g id="a_edge2_Node000002_Node000003"><a xlink:title=" ">
<path fill="none" stroke="#63b8ff" d="M55.15,-55.59C50.54,-48.47 44.04,-38.45 38.38,-29.72"/>
<polygon fill="#63b8ff" stroke="#63b8ff" points="41.48,-28.06 33.1,-21.57 35.6,-31.86 41.48,-28.06"/>
</a>
</g>
</g>
<!-- Node4 -->
<g id="Node000004" class="node">
<title>Node4</title>
<g id="a_Node000004"><a xlink:title=" ">
<polygon fill="#e0e0e0" stroke="#999999" points="124.12,-20 68.38,-20 68.38,0 124.12,0 124.12,-20"/>
<text xml:space="preserve" text-anchor="middle" x="96.25" y="-6.5" font-family="Helvetica,sans-Serif" font-size="10.00">stdbool.h</text>
</a>
</g>
</g>
<!-- Node2&#45;&gt;Node4 -->
<g id="edge3_Node000002_Node000004" class="edge">
<title>Node2&#45;&gt;Node4</title>
<g id="a_edge3_Node000002_Node000004"><a xlink:title=" ">
<path fill="none" stroke="#63b8ff" d="M67.35,-55.59C71.96,-48.47 78.46,-38.45 84.12,-29.72"/>
<polygon fill="#63b8ff" stroke="#63b8ff" points="86.9,-31.86 89.4,-21.57 81.02,-28.06 86.9,-31.86"/>
</a>
</g>
</g>
</g>
</svg>
