<?xml version="1.0" encoding="UTF-8" standalone="no"?>
<!DOCTYPE svg PUBLIC "-//W3C//DTD SVG 1.1//EN"
 "http://www.w3.org/Graphics/SVG/1.1/DTD/svg11.dtd">
<!-- Generated by graphviz version 15.1.1 (20260805.0921)
 -->
<!-- Title: AINA_Read Pages: 1 -->
<svg width="198pt" height="46pt"
 viewBox="0.00 0.00 198.00 46.00" xmlns="http://www.w3.org/2000/svg" xmlns:xlink="http://www.w3.org/1999/xlink">
<g id="graph0" class="graph" transform="scale(1 1) rotate(0) translate(4 42)">
<title>AINA_Read</title>
<!-- Node1 -->
<g id="Node000001" class="node">
<title>Node1</title>
<g id="a_Node000001"><a xlink:title="Start a paired ADC conversion with DMA re&#45;arm.">
<polygon fill="#999999" stroke="#666666" points="68.5,-20 0,-20 0,0 68.5,0 68.5,-20"/>
<text xml:space="preserve" text-anchor="middle" x="34.25" y="-6.5" font-family="Helvetica,sans-Serif" font-size="10.00">AINA_Read</text>
</a>
</g>
</g>
<!-- Node1&#45;&gt;Node1 -->
<g id="edge1_Node000001_Node000001" class="edge">
<title>Node1&#45;&gt;Node1</title>
<g id="a_edge1_Node000001_Node000001"><a xlink:title=" ">
<path fill="none" stroke="#63b8ff" d="M16.28,-20.34C8.59,-28.98 14.59,-38 34.25,-38 45,-38 51.67,-35.3 54.24,-31.44"/>
<polygon fill="#63b8ff" stroke="#63b8ff" points="57.73,-31.04 52.5,-21.83 50.84,-32.29 57.73,-31.04"/>
</a>
</g>
</g>
<!-- Node2 -->
<g id="Node000002" class="node">
<title>Node2</title>
<g id="a_Node000002"><a xlink:href="adc_8c.html#a91204ebbe08efacf68979f3a47f85223" target="_top" xlink:title="Trigger a single conversion on ADC Unit A.">
<polygon fill="white" stroke="#666666" points="190.25,-20 104.5,-20 104.5,0 190.25,0 190.25,-20"/>
<text xml:space="preserve" text-anchor="middle" x="147.38" y="-6.5" font-family="Helvetica,sans-Serif" font-size="10.00">AINA_StartSGL</text>
</a>
</g>
</g>
<!-- Node1&#45;&gt;Node2 -->
<g id="edge2_Node000001_Node000002" class="edge">
<title>Node1&#45;&gt;Node2</title>
<g id="a_edge2_Node000001_Node000002"><a xlink:title=" ">
<path fill="none" stroke="#63b8ff" d="M68.89,-10C76.45,-10 84.65,-10 92.79,-10"/>
<polygon fill="#63b8ff" stroke="#63b8ff" points="92.68,-13.5 102.68,-10 92.68,-6.5 92.68,-13.5"/>
</a>
</g>
</g>
<!-- Node2&#45;&gt;Node2 -->
<g id="edge3_Node000002_Node000002" class="edge">
<title>Node2&#45;&gt;Node2</title>
<g id="a_edge3_Node000002_Node000002"><a xlink:title=" ">
<path fill="none" stroke="#63b8ff" d="M129.4,-20.34C121.72,-28.98 127.71,-38 147.38,-38 158.13,-38 164.79,-35.3 167.37,-31.44"/>
<polygon fill="#63b8ff" stroke="#63b8ff" points="170.85,-31.04 165.62,-21.83 163.97,-32.29 170.85,-31.04"/>
</a>
</g>
</g>
</g>
</svg>
