<?xml version="1.0" encoding="UTF-8" standalone="no"?>
<!DOCTYPE svg PUBLIC "-//W3C//DTD SVG 1.1//EN"
 "http://www.w3.org/Graphics/SVG/1.1/DTD/svg11.dtd">
<!-- Generated by graphviz version 15.1.1 (20260805.0921)
 -->
<!-- Title: src/core_cm4.h Pages: 1 -->
<svg width="549pt" height="196pt"
 viewBox="0.00 0.00 549.00 196.00" xmlns="http://www.w3.org/2000/svg" xmlns:xlink="http://www.w3.org/1999/xlink">
<g id="graph0" class="graph" transform="scale(1 1) rotate(0) translate(4 192)">
<title>src/core_cm4.h</title>
<!-- Node1 -->
<g id="Node000001" class="node">
<title>Node1</title>
<g id="a_Node000001"><a xlink:title="CMSIS Cortex&#45;M4 Core Peripheral Access Layer Header File.">
<polygon fill="#999999" stroke="#666666" points="328,-188 244.5,-188 244.5,-168 328,-168 328,-188"/>
<text xml:space="preserve" text-anchor="middle" x="286.25" y="-174.5" font-family="Helvetica,sans-Serif" font-size="10.00">src/core_cm4.h</text>
</a>
</g>
</g>
<!-- Node2 -->
<g id="Node000002" class="node">
<title>Node2</title>
<g id="a_Node000002"><a xlink:href="_t_m_p_m4_k_l_a_8h.html" target="_top" xlink:title="CMSIS Cortex&#45;M4 Core Peripheral Access Layer Header File for the TOSHIBA &#39;TMPM4KLA&#39; Device Series.">
<polygon fill="white" stroke="#666666" points="128.5,-132 0,-132 0,-112 128.5,-112 128.5,-132"/>
<text xml:space="preserve" text-anchor="middle" x="64.25" y="-118.5" font-family="Helvetica,sans-Serif" font-size="10.00">src/Include/TMPM4KLA.h</text>
</a>
</g>
</g>
<!-- Node1&#45;&gt;Node2 -->
<g id="edge1_Node000001_Node000002" class="edge">
<title>Node1&#45;&gt;Node2</title>
<g id="a_edge1_Node000001_Node000002"><a xlink:title=" ">
<path fill="none" stroke="#63b8ff" d="M236.14,-164.81C195.86,-155.01 140.09,-141.45 103.13,-132.46"/>
<polygon fill="#63b8ff" stroke="#63b8ff" points="235.31,-168.21 245.86,-167.17 236.97,-161.41 235.31,-168.21"/>
</a>
</g>
</g>
<!-- Node3 -->
<g id="Node000003" class="node">
<title>Node3</title>
<g id="a_Node000003"><a xlink:href="_t_m_p_m4_k_m_a_8h.html" target="_top" xlink:title="CMSIS Cortex&#45;M4 Core Peripheral Access Layer Header File for the TOSHIBA &#39;TMPM4KMA&#39; Device Series.">
<polygon fill="white" stroke="#666666" points="278,-132 146.5,-132 146.5,-112 278,-112 278,-132"/>
<text xml:space="preserve" text-anchor="middle" x="212.25" y="-118.5" font-family="Helvetica,sans-Serif" font-size="10.00">src/Include/TMPM4KMA.h</text>
</a>
</g>
</g>
<!-- Node1&#45;&gt;Node3 -->
<g id="edge2_Node000001_Node000003" class="edge">
<title>Node1&#45;&gt;Node3</title>
<g id="a_edge2_Node000001_Node000003"><a xlink:title=" ">
<path fill="none" stroke="#63b8ff" d="M264.26,-160.95C251.46,-151.61 235.77,-140.16 224.99,-132.3"/>
<polygon fill="#63b8ff" stroke="#63b8ff" points="262,-163.63 272.14,-166.7 266.12,-157.98 262,-163.63"/>
</a>
</g>
</g>
<!-- Node4 -->
<g id="Node000004" class="node">
<title>Node4</title>
<g id="a_Node000004"><a xlink:href="_include_2_t_m_p_m4_k_n_a_8h.html" target="_top" xlink:title="CMSIS Cortex&#45;M4 Core Peripheral Access Layer Header File for the TOSHIBA &#39;TMPM4KNA&#39; Device Series.">
<polygon fill="white" stroke="#666666" points="426.62,-132 295.88,-132 295.88,-112 426.62,-112 426.62,-132"/>
<text xml:space="preserve" text-anchor="middle" x="361.25" y="-118.5" font-family="Helvetica,sans-Serif" font-size="10.00">src/Include/TMPM4KNA.h</text>
</a>
</g>
</g>
<!-- Node1&#45;&gt;Node4 -->
<g id="edge3_Node000001_Node000004" class="edge">
<title>Node1&#45;&gt;Node4</title>
<g id="a_edge3_Node000001_Node000004"><a xlink:title=" ">
<path fill="none" stroke="#63b8ff" d="M308.47,-161C321.36,-151.72 337.15,-140.35 348.08,-132.48"/>
<polygon fill="#63b8ff" stroke="#63b8ff" points="306.61,-158.03 300.54,-166.71 310.7,-163.71 306.61,-158.03"/>
</a>
</g>
</g>
<!-- Node6 -->
<g id="Node000006" class="node">
<title>Node6</title>
<g id="a_Node000006"><a xlink:href="_t_m_p_m4_k_n_a_8h.html" target="_top" xlink:title="CMSIS Cortex&#45;M4 Core Peripheral Access Layer Header File for the TOSHIBA &#39;TMPM4KNA&#39; Device Series.">
<polygon fill="white" stroke="#666666" points="541.38,-132 445.12,-132 445.12,-112 541.38,-112 541.38,-132"/>
<text xml:space="preserve" text-anchor="middle" x="493.25" y="-118.5" font-family="Helvetica,sans-Serif" font-size="10.00">src/TMPM4KNA.h</text>
</a>
</g>
</g>
<!-- Node1&#45;&gt;Node6 -->
<g id="edge5_Node000001_Node000006" class="edge">
<title>Node1&#45;&gt;Node6</title>
<g id="a_edge5_Node000001_Node000006"><a xlink:title=" ">
<path fill="none" stroke="#63b8ff" d="M332.97,-164.81C370.5,-155.02 422.45,-141.47 456.91,-132.48"/>
<polygon fill="#63b8ff" stroke="#63b8ff" points="332.56,-161.3 323.77,-167.21 334.33,-168.07 332.56,-161.3"/>
</a>
</g>
</g>
<!-- Node5 -->
<g id="Node000005" class="node">
<title>Node5</title>
<g id="a_Node000005"><a xlink:href="_include_2_t_m_p_m4ky_a_8h.html" target="_top" xlink:title="CMSIS Cortex&#45;M4 Core Peripheral Access Layer Header File for the TOSHIBA &#39;TMPM4Ky&#39; Group....">
<polygon fill="white" stroke="#666666" points="424.75,-76 297.75,-76 297.75,-56 424.75,-56 424.75,-76"/>
<text xml:space="preserve" text-anchor="middle" x="361.25" y="-62.5" font-family="Helvetica,sans-Serif" font-size="10.00">src/Include/TMPM4kyA.h</text>
</a>
</g>
</g>
<!-- Node4&#45;&gt;Node5 -->
<g id="edge4_Node000004_Node000005" class="edge">
<title>Node4&#45;&gt;Node5</title>
<g id="a_edge4_Node000004_Node000005"><a xlink:title=" ">
<path fill="none" stroke="#63b8ff" d="M361.25,-100.13C361.25,-91.9 361.25,-82.85 361.25,-76.3"/>
<polygon fill="#63b8ff" stroke="#63b8ff" points="357.75,-100.08 361.25,-110.08 364.75,-100.08 357.75,-100.08"/>
</a>
</g>
</g>
<!-- Node7 -->
<g id="Node000007" class="node">
<title>Node7</title>
<g id="a_Node000007"><a xlink:href="_t_m_p_m4ky_a_8h.html" target="_top" xlink:title="CMSIS Cortex&#45;M4 Core Peripheral Access Layer Header File for the TOSHIBA &#39;TMPM4Ky&#39; Group....">
<polygon fill="white" stroke="#666666" points="540.25,-76 446.25,-76 446.25,-56 540.25,-56 540.25,-76"/>
<text xml:space="preserve" text-anchor="middle" x="493.25" y="-62.5" font-family="Helvetica,sans-Serif" font-size="10.00">src/TMPM4KyA.h</text>
</a>
</g>
</g>
<!-- Node6&#45;&gt;Node7 -->
<g id="edge6_Node000006_Node000007" class="edge">
<title>Node6&#45;&gt;Node7</title>
<g id="a_edge6_Node000006_Node000007"><a xlink:title=" ">
<path fill="none" stroke="#63b8ff" d="M493.25,-100.13C493.25,-91.9 493.25,-82.85 493.25,-76.3"/>
<polygon fill="#63b8ff" stroke="#63b8ff" points="489.75,-100.08 493.25,-110.08 496.75,-100.08 489.75,-100.08"/>
</a>
</g>
</g>
<!-- Node8 -->
<g id="Node000008" class="node">
<title>Node8</title>
<g id="a_Node000008"><a xlink:href="main_8c.html" target="_top" xlink:title="Micromouse main firmware entry point.">
<polygon fill="white" stroke="#666666" points="524.12,-20 462.38,-20 462.38,0 524.12,0 524.12,-20"/>
<text xml:space="preserve" text-anchor="middle" x="493.25" y="-6.5" font-family="Helvetica,sans-Serif" font-size="10.00">src/main.c</text>
</a>
</g>
</g>
<!-- Node7&#45;&gt;Node8 -->
<g id="edge7_Node000007_Node000008" class="edge">
<title>Node7&#45;&gt;Node8</title>
<g id="a_edge7_Node000007_Node000008"><a xlink:title=" ">
<path fill="none" stroke="#63b8ff" d="M493.25,-44.13C493.25,-35.9 493.25,-26.85 493.25,-20.3"/>
<polygon fill="#63b8ff" stroke="#63b8ff" points="489.75,-44.08 493.25,-54.08 496.75,-44.08 489.75,-44.08"/>
</a>
</g>
</g>
</g>
</svg>
