<?xml version="1.0" encoding="UTF-8" standalone="no"?>
<!DOCTYPE svg PUBLIC "-//W3C//DTD SVG 1.1//EN"
 "http://www.w3.org/Graphics/SVG/1.1/DTD/svg11.dtd">
<!-- Generated by graphviz version 15.1.1 (20260805.0921)
 -->
<!-- Title: ENC2_Init Pages: 1 -->
<svg width="556pt" height="102pt"
 viewBox="0.00 0.00 556.00 102.00" xmlns="http://www.w3.org/2000/svg" xmlns:xlink="http://www.w3.org/1999/xlink">
<g id="graph0" class="graph" transform="scale(1 1) rotate(0) translate(4 98)">
<title>ENC2_Init</title>
<!-- Node1 -->
<g id="Node000001" class="node">
<title>Node1</title>
<g id="a_Node000001"><a xlink:title=" ">
<polygon fill="#999999" stroke="#666666" points="548.25,-39 486.5,-39 486.5,-19 548.25,-19 548.25,-39"/>
<text xml:space="preserve" text-anchor="middle" x="517.38" y="-25.5" font-family="Helvetica,sans-Serif" font-size="10.00">ENC2_Init</text>
</a>
</g>
</g>
<!-- Node1&#45;&gt;Node1 -->
<g id="edge1_Node000001_Node000001" class="edge">
<title>Node1&#45;&gt;Node1</title>
<g id="a_edge1_Node000001_Node000001"><a xlink:title=" ">
<path fill="none" stroke="#63b8ff" d="M535.71,-50.44C533.35,-54.3 527.24,-57 517.38,-57 499.34,-57 493.85,-47.98 500.89,-39.34"/>
<polygon fill="#63b8ff" stroke="#63b8ff" points="539.21,-50.12 534.11,-40.83 532.3,-51.27 539.21,-50.12"/>
</a>
</g>
</g>
<!-- Node2 -->
<g id="Node000002" class="node">
<title>Node2</title>
<g id="a_Node000002"><a xlink:href="encoder32_a_8c.html#a936c7aac1c810f4d7e3faa05b7f006e6" target="_top" xlink:title="Initialise all encoder modules.">
<polygon fill="white" stroke="#666666" points="450.5,-39 376.75,-39 376.75,-19 450.5,-19 450.5,-39"/>
<text xml:space="preserve" text-anchor="middle" x="413.62" y="-25.5" font-family="Helvetica,sans-Serif" font-size="10.00">ENC32A_Init</text>
</a>
</g>
</g>
<!-- Node1&#45;&gt;Node2 -->
<g id="edge2_Node000001_Node000002" class="edge">
<title>Node1&#45;&gt;Node2</title>
<g id="a_edge2_Node000001_Node000002"><a xlink:title=" ">
<path fill="none" stroke="#63b8ff" d="M474.75,-29C466.77,-29 458.47,-29 450.69,-29"/>
<polygon fill="#63b8ff" stroke="#63b8ff" points="474.61,-32.5 484.61,-29 474.61,-25.5 474.61,-32.5"/>
</a>
</g>
</g>
<!-- Node2&#45;&gt;Node2 -->
<g id="edge3_Node000002_Node000002" class="edge">
<title>Node2&#45;&gt;Node2</title>
<g id="a_edge3_Node000002_Node000002"><a xlink:title=" ">
<path fill="none" stroke="#63b8ff" d="M431.96,-50.44C429.6,-54.3 423.49,-57 413.62,-57 395.59,-57 390.1,-47.98 397.14,-39.34"/>
<polygon fill="#63b8ff" stroke="#63b8ff" points="435.46,-50.12 430.36,-40.83 428.55,-51.27 435.46,-50.12"/>
</a>
</g>
</g>
<!-- Node3 -->
<g id="Node000003" class="node">
<title>Node3</title>
<g id="a_Node000003"><a xlink:href="_encoder_8c.html#a1c8318d644fc2e61cc1ef9cb0710feb6" target="_top" xlink:title="Initialise encoder hardware and internal state.">
<polygon fill="white" stroke="#666666" points="340.75,-39 270,-39 270,-19 340.75,-19 340.75,-39"/>
<text xml:space="preserve" text-anchor="middle" x="305.38" y="-25.5" font-family="Helvetica,sans-Serif" font-size="10.00">Encoder_Init</text>
</a>
</g>
</g>
<!-- Node2&#45;&gt;Node3 -->
<g id="edge4_Node000002_Node000003" class="edge">
<title>Node2&#45;&gt;Node3</title>
<g id="a_edge4_Node000002_Node000003"><a xlink:title=" ">
<path fill="none" stroke="#63b8ff" d="M365.1,-29C357.01,-29 348.73,-29 341.04,-29"/>
<polygon fill="#63b8ff" stroke="#63b8ff" points="364.84,-32.5 374.84,-29 364.84,-25.5 364.84,-32.5"/>
</a>
</g>
</g>
<!-- Node3&#45;&gt;Node3 -->
<g id="edge5_Node000003_Node000003" class="edge">
<title>Node3&#45;&gt;Node3</title>
<g id="a_edge5_Node000003_Node000003"><a xlink:title=" ">
<path fill="none" stroke="#63b8ff" d="M323.65,-50.44C321.29,-54.3 315.2,-57 305.38,-57 287.41,-57 281.93,-47.98 288.95,-39.34"/>
<polygon fill="#63b8ff" stroke="#63b8ff" points="327.14,-50.12 322.05,-40.83 320.24,-51.27 327.14,-50.12"/>
</a>
</g>
</g>
<!-- Node4 -->
<g id="Node000004" class="node">
<title>Node4</title>
<g id="a_Node000004"><a xlink:href="_motion_8c.html#aad8ce1070ef0837cd67c0371c32df102" target="_top" xlink:title="Initialize PID controllers &amp; Motor related modules.">
<polygon fill="white" stroke="#666666" points="234,-58 170,-58 170,-38 234,-38 234,-58"/>
<text xml:space="preserve" text-anchor="middle" x="202" y="-44.5" font-family="Helvetica,sans-Serif" font-size="10.00">Motion_Init</text>
</a>
</g>
</g>
<!-- Node3&#45;&gt;Node4 -->
<g id="edge6_Node000003_Node000004" class="edge">
<title>Node3&#45;&gt;Node4</title>
<g id="a_edge6_Node000003_Node000004"><a xlink:title=" ">
<path fill="none" stroke="#63b8ff" d="M258.46,-37.61C250.32,-39.13 242.01,-40.69 234.39,-42.12"/>
<polygon fill="#63b8ff" stroke="#63b8ff" points="259.1,-41.05 268.28,-35.76 257.81,-34.17 259.1,-41.05"/>
</a>
</g>
</g>
<!-- Node7 -->
<g id="Node000007" class="node">
<title>Node7</title>
<g id="a_Node000007"><a xlink:href="_module_test_8c.html#ac497d1b7849ac646d67a4f2986b62e15" target="_top" xlink:title=" ">
<polygon fill="white" stroke="#666666" points="130.25,-20 76.75,-20 76.75,0 130.25,0 130.25,-20"/>
<text xml:space="preserve" text-anchor="middle" x="103.5" y="-6.5" font-family="Helvetica,sans-Serif" font-size="10.00">Test_Init</text>
</a>
</g>
</g>
<!-- Node3&#45;&gt;Node7 -->
<g id="edge15_Node000003_Node000007" class="edge">
<title>Node3&#45;&gt;Node7</title>
<g id="a_edge15_Node000003_Node000007"><a xlink:title=" ">
<path fill="none" stroke="#63b8ff" d="M258.34,-24.62C218.74,-20.86 163.02,-15.56 130.64,-12.49"/>
<polygon fill="#63b8ff" stroke="#63b8ff" points="257.77,-28.09 268.05,-25.55 258.43,-21.12 257.77,-28.09"/>
</a>
</g>
</g>
<!-- Node4&#45;&gt;Node4 -->
<g id="edge11_Node000004_Node000004" class="edge">
<title>Node4&#45;&gt;Node4</title>
<g id="a_edge11_Node000004_Node000004"><a xlink:title=" ">
<path fill="none" stroke="#63b8ff" d="M219.41,-69.44C217.17,-73.3 211.36,-76 202,-76 184.88,-76 179.66,-66.98 186.35,-58.34"/>
<polygon fill="#63b8ff" stroke="#63b8ff" points="222.91,-69.16 217.89,-59.83 215.99,-70.26 222.91,-69.16"/>
</a>
</g>
</g>
<!-- Node5 -->
<g id="Node000005" class="node">
<title>Node5</title>
<g id="a_Node000005"><a xlink:href="main_8c.html#af7b7b66e2842b8b81cb18fab136f7a77" target="_top" xlink:title="Initialize all modules in dependency order.">
<polygon fill="white" stroke="#666666" points="134,-76 73,-76 73,-56 134,-56 134,-76"/>
<text xml:space="preserve" text-anchor="middle" x="103.5" y="-62.5" font-family="Helvetica,sans-Serif" font-size="10.00">ModuleInit</text>
</a>
</g>
</g>
<!-- Node4&#45;&gt;Node5 -->
<g id="edge7_Node000004_Node000005" class="edge">
<title>Node4&#45;&gt;Node5</title>
<g id="a_edge7_Node000004_Node000005"><a xlink:title=" ">
<path fill="none" stroke="#63b8ff" d="M158.43,-55.94C150.32,-57.45 141.98,-59.01 134.36,-60.43"/>
<polygon fill="#63b8ff" stroke="#63b8ff" points="158.99,-59.4 168.18,-54.12 157.71,-52.51 158.99,-59.4"/>
</a>
</g>
</g>
<!-- Node4&#45;&gt;Node7 -->
<g id="edge12_Node000004_Node000007" class="edge">
<title>Node4&#45;&gt;Node7</title>
<g id="a_edge12_Node000004_Node000007"><a xlink:title=" ">
<path fill="none" stroke="#63b8ff" d="M163.71,-33.32C152.69,-28.98 140.87,-24.32 130.7,-20.32"/>
<polygon fill="#63b8ff" stroke="#63b8ff" points="162.38,-36.55 172.97,-36.96 164.95,-30.04 162.38,-36.55"/>
</a>
</g>
</g>
<!-- Node5&#45;&gt;Node5 -->
<g id="edge10_Node000005_Node000005" class="edge">
<title>Node5&#45;&gt;Node5</title>
<g id="a_edge10_Node000005_Node000005"><a xlink:title=" ">
<path fill="none" stroke="#63b8ff" d="M118.35,-87.77C116.3,-91.45 111.35,-94 103.5,-94 88.72,-94 84.22,-84.98 89.99,-76.34"/>
<polygon fill="#63b8ff" stroke="#63b8ff" points="121.83,-87.36 117.18,-77.84 114.87,-88.18 121.83,-87.36"/>
</a>
</g>
</g>
<!-- Node6 -->
<g id="Node000006" class="node">
<title>Node6</title>
<g id="a_Node000006"><a xlink:href="main_8c.html#a840291bc02cba5474a4cb46a9b9566fe" target="_top" xlink:title=" ">
<polygon fill="white" stroke="#666666" points="37,-76 0,-76 0,-56 37,-56 37,-76"/>
<text xml:space="preserve" text-anchor="middle" x="18.5" y="-62.5" font-family="Helvetica,sans-Serif" font-size="10.00">main</text>
</a>
</g>
</g>
<!-- Node5&#45;&gt;Node6 -->
<g id="edge8_Node000005_Node000006" class="edge">
<title>Node5&#45;&gt;Node6</title>
<g id="a_edge8_Node000005_Node000006"><a xlink:title=" ">
<path fill="none" stroke="#63b8ff" d="M61.12,-66C52.65,-66 44.17,-66 37.1,-66"/>
<polygon fill="#63b8ff" stroke="#63b8ff" points="61.02,-69.5 71.02,-66 61.02,-62.5 61.02,-69.5"/>
</a>
</g>
</g>
<!-- Node6&#45;&gt;Node6 -->
<g id="edge9_Node000006_Node000006" class="edge">
<title>Node6&#45;&gt;Node6</title>
<g id="a_edge9_Node000006_Node000006"><a xlink:title=" ">
<path fill="none" stroke="#63b8ff" d="M33.35,-87.77C31.3,-91.45 26.35,-94 18.5,-94 3.72,-94 -0.78,-84.98 4.99,-76.34"/>
<polygon fill="#63b8ff" stroke="#63b8ff" points="36.83,-87.36 32.18,-77.84 29.87,-88.18 36.83,-87.36"/>
</a>
</g>
</g>
<!-- Node7&#45;&gt;Node7 -->
<g id="edge14_Node000007_Node000007" class="edge">
<title>Node7&#45;&gt;Node7</title>
<g id="a_edge14_Node000007_Node000007"><a xlink:title=" ">
<path fill="none" stroke="#63b8ff" d="M118.35,-31.77C116.3,-35.45 111.35,-38 103.5,-38 88.72,-38 84.22,-28.98 89.99,-20.34"/>
<polygon fill="#63b8ff" stroke="#63b8ff" points="121.83,-31.36 117.18,-21.84 114.87,-32.18 121.83,-31.36"/>
</a>
</g>
</g>
<!-- Node8 -->
<g id="Node000008" class="node">
<title>Node8</title>
<g id="a_Node000008"><a xlink:href="_module_test_8c.html#a840291bc02cba5474a4cb46a9b9566fe" target="_top" xlink:title=" ">
<polygon fill="white" stroke="#666666" points="37,-20 0,-20 0,0 37,0 37,-20"/>
<text xml:space="preserve" text-anchor="middle" x="18.5" y="-6.5" font-family="Helvetica,sans-Serif" font-size="10.00">main</text>
</a>
</g>
</g>
<!-- Node7&#45;&gt;Node8 -->
<g id="edge13_Node000007_Node000008" class="edge">
<title>Node7&#45;&gt;Node8</title>
<g id="a_edge13_Node000007_Node000008"><a xlink:title=" ">
<path fill="none" stroke="#63b8ff" d="M65.2,-10C55.53,-10 45.55,-10 37.4,-10"/>
<polygon fill="#63b8ff" stroke="#63b8ff" points="65.18,-13.5 75.18,-10 65.18,-6.5 65.18,-13.5"/>
</a>
</g>
</g>
</g>
</svg>
