<?xml version="1.0" encoding="UTF-8" standalone="no"?>
<!DOCTYPE svg PUBLIC "-//W3C//DTD SVG 1.1//EN"
 "http://www.w3.org/Graphics/SVG/1.1/DTD/svg11.dtd">
<!-- Generated by graphviz version 15.1.1 (20260805.0921)
 -->
<!-- Title: PORT_U_Init Pages: 1 -->
<svg width="201pt" height="46pt"
 viewBox="0.00 0.00 201.00 46.00" xmlns="http://www.w3.org/2000/svg" xmlns:xlink="http://www.w3.org/1999/xlink">
<g id="graph0" class="graph" transform="scale(1 1) rotate(0) translate(4 42)">
<title>PORT_U_Init</title>
<!-- Node1 -->
<g id="Node000001" class="node">
<title>Node1</title>
<g id="a_Node000001"><a xlink:title=" ">
<polygon fill="#999999" stroke="#666666" points="74.5,-20 0,-20 0,0 74.5,0 74.5,-20"/>
<text xml:space="preserve" text-anchor="middle" x="37.25" y="-6.5" font-family="Helvetica,sans-Serif" font-size="10.00">PORT_U_Init</text>
</a>
</g>
</g>
<!-- Node1&#45;&gt;Node1 -->
<g id="edge1_Node000001_Node000001" class="edge">
<title>Node1&#45;&gt;Node1</title>
<g id="a_edge1_Node000001_Node000001"><a xlink:title=" ">
<path fill="none" stroke="#63b8ff" d="M19.04,-20.34C11.25,-28.98 17.32,-38 37.25,-38 48.15,-38 54.9,-35.3 57.51,-31.44"/>
<polygon fill="#63b8ff" stroke="#63b8ff" points="60.99,-31.03 55.74,-21.83 54.11,-32.3 60.99,-31.03"/>
</a>
</g>
</g>
<!-- Node2 -->
<g id="Node000002" class="node">
<title>Node2</title>
<g id="a_Node000002"><a xlink:href="gpio_8c.html#a06eb587d413d447b199dccf180d44a16" target="_top" xlink:title=" ">
<polygon fill="white" stroke="#666666" points="193.25,-20 110.5,-20 110.5,0 193.25,0 193.25,-20"/>
<text xml:space="preserve" text-anchor="middle" x="151.88" y="-6.5" font-family="Helvetica,sans-Serif" font-size="10.00">PU_FRn_Clear</text>
</a>
</g>
</g>
<!-- Node1&#45;&gt;Node2 -->
<g id="edge2_Node000001_Node000002" class="edge">
<title>Node1&#45;&gt;Node2</title>
<g id="a_edge2_Node000001_Node000002"><a xlink:title=" ">
<path fill="none" stroke="#63b8ff" d="M74.82,-10C82.5,-10 90.74,-10 98.87,-10"/>
<polygon fill="#63b8ff" stroke="#63b8ff" points="98.69,-13.5 108.69,-10 98.69,-6.5 98.69,-13.5"/>
</a>
</g>
</g>
<!-- Node2&#45;&gt;Node2 -->
<g id="edge3_Node000002_Node000002" class="edge">
<title>Node2&#45;&gt;Node2</title>
<g id="a_edge3_Node000002_Node000002"><a xlink:title=" ">
<path fill="none" stroke="#63b8ff" d="M133.66,-20.34C125.88,-28.98 131.95,-38 151.88,-38 162.77,-38 169.52,-35.3 172.13,-31.44"/>
<polygon fill="#63b8ff" stroke="#63b8ff" points="175.62,-31.03 170.36,-21.83 168.73,-32.3 175.62,-31.03"/>
</a>
</g>
</g>
</g>
</svg>
