<?xml version="1.0" encoding="UTF-8" standalone="no"?>
<!DOCTYPE svg PUBLIC "-//W3C//DTD SVG 1.1//EN"
 "http://www.w3.org/Graphics/SVG/1.1/DTD/svg11.dtd">
<!-- Generated by graphviz version 15.1.1 (20260805.0921)
 -->
<!-- Title: Data Watchpoint and Trace (DWT) Pages: 1 -->
<svg width="401pt" height="40pt"
 viewBox="0.00 0.00 401.00 40.00" xmlns="http://www.w3.org/2000/svg" xmlns:xlink="http://www.w3.org/1999/xlink">
<g id="graph0" class="graph" transform="scale(1 1) rotate(0) translate(4 36)">
<title>Data Watchpoint and Trace (DWT)</title>
<!-- Node1 -->
<g id="Node000001" class="node">
<title>Node1</title>
<g id="a_Node000001"><a xlink:title="Type definitions for the Data Watchpoint and Trace (DWT).">
<polygon fill="#999999" stroke="#666666" points="254,-32 146.5,-32 146.5,0 254,0 254,-32"/>
<text xml:space="preserve" text-anchor="start" x="154.5" y="-18.5" font-family="Helvetica,sans-Serif" font-size="10.00">Data Watchpoint and</text>
<text xml:space="preserve" text-anchor="middle" x="200.25" y="-6.5" font-family="Helvetica,sans-Serif" font-size="10.00"> Trace (DWT)</text>
</a>
</g>
</g>
<!-- Node3 -->
<g id="Node000003" class="node">
<title>Node3</title>
<g id="a_Node000003"><a xlink:href="group___c_m_s_i_s___t_p_i.html" target="_top" xlink:title="Type definitions for the Trace Port Interface (TPI).">
<polygon fill="white" stroke="#666666" points="393,-32 290,-32 290,0 393,0 393,-32"/>
<text xml:space="preserve" text-anchor="start" x="298" y="-18.5" font-family="Helvetica,sans-Serif" font-size="10.00">Trace Port Interface</text>
<text xml:space="preserve" text-anchor="middle" x="341.5" y="-6.5" font-family="Helvetica,sans-Serif" font-size="10.00"> (TPI)</text>
</a>
</g>
</g>
<!-- Node1&#45;&gt;Node3 -->
<g id="edge2" class="edge">
<title>Node1&#45;&gt;Node3</title>
<path fill="none" stroke="black" d="M265.67,-16C273.8,-16 282.03,-16 289.9,-16"/>
<polygon fill="black" stroke="black" points="265.81,-12.5 255.81,-16 265.81,-19.5 265.81,-12.5"/>
</g>
<!-- Node2 -->
<g id="Node000002" class="node">
<title>Node2</title>
<g id="a_Node000002"><a xlink:href="group___c_m_s_i_s___i_t_m.html" target="_top" xlink:title="Type definitions for the Instrumentation Trace Macrocell (ITM).">
<polygon fill="white" stroke="#666666" points="110.5,-32 0,-32 0,0 110.5,0 110.5,-32"/>
<text xml:space="preserve" text-anchor="start" x="8" y="-18.5" font-family="Helvetica,sans-Serif" font-size="10.00">Instrumentation Trace</text>
<text xml:space="preserve" text-anchor="middle" x="55.25" y="-6.5" font-family="Helvetica,sans-Serif" font-size="10.00"> Macrocell (ITM)</text>
</a>
</g>
</g>
<!-- Node2&#45;&gt;Node1 -->
<g id="edge1" class="edge">
<title>Node2&#45;&gt;Node1</title>
<path fill="none" stroke="black" d="M122.1,-16C130.23,-16 138.45,-16 146.35,-16"/>
<polygon fill="black" stroke="black" points="122.23,-12.5 112.23,-16 122.23,-19.5 122.23,-12.5"/>
</g>
</g>
</svg>
