<?xml version="1.0" encoding="UTF-8" standalone="no"?>
<!DOCTYPE svg PUBLIC "-//W3C//DTD SVG 1.1//EN"
 "http://www.w3.org/Graphics/SVG/1.1/DTD/svg11.dtd">
<!-- Generated by graphviz version 15.1.1 (20260805.0921)
 -->
<!-- Title: System Tick Timer (SysTick) Pages: 1 -->
<svg width="397pt" height="40pt"
 viewBox="0.00 0.00 397.00 40.00" xmlns="http://www.w3.org/2000/svg" xmlns:xlink="http://www.w3.org/1999/xlink">
<g id="graph0" class="graph" transform="scale(1 1) rotate(0) translate(4 36)">
<title>System Tick Timer (SysTick)</title>
<!-- Node3 -->
<g id="Node000003" class="node">
<title>Node3</title>
<g id="a_Node000003"><a xlink:href="group___c_m_s_i_s___i_t_m.html" target="_top" xlink:title="Type definitions for the Instrumentation Trace Macrocell (ITM).">
<polygon fill="white" stroke="#666666" points="389.25,-32 278.75,-32 278.75,0 389.25,0 389.25,-32"/>
<text xml:space="preserve" text-anchor="start" x="286.75" y="-18.5" font-family="Helvetica,sans-Serif" font-size="10.00">Instrumentation Trace</text>
<text xml:space="preserve" text-anchor="middle" x="334" y="-6.5" font-family="Helvetica,sans-Serif" font-size="10.00"> Macrocell (ITM)</text>
</a>
</g>
</g>
<!-- Node2 -->
<g id="Node000002" class="node">
<title>Node2</title>
<g id="a_Node000002"><a xlink:href="group___c_m_s_i_s___s_cn_s_c_b.html" target="_top" xlink:title="Type definitions for the System Control and ID Register not in the SCB.">
<polygon fill="white" stroke="#666666" points="106,-32 0,-32 0,0 106,0 106,-32"/>
<text xml:space="preserve" text-anchor="start" x="8" y="-18.5" font-family="Helvetica,sans-Serif" font-size="10.00">System Controls not</text>
<text xml:space="preserve" text-anchor="middle" x="53" y="-6.5" font-family="Helvetica,sans-Serif" font-size="10.00"> in SCB (SCnSCB)</text>
</a>
</g>
</g>
<!-- Node1 -->
<g id="Node000001" class="node">
<title>Node1</title>
<g id="a_Node000001"><a xlink:title="Type definitions for the System Timer Registers.">
<polygon fill="#999999" stroke="#666666" points="242.75,-32 142,-32 142,0 242.75,0 242.75,-32"/>
<text xml:space="preserve" text-anchor="start" x="150" y="-18.5" font-family="Helvetica,sans-Serif" font-size="10.00">System Tick Timer </text>
<text xml:space="preserve" text-anchor="middle" x="192.38" y="-6.5" font-family="Helvetica,sans-Serif" font-size="10.00">(SysTick)</text>
</a>
</g>
</g>
<!-- Node2&#45;&gt;Node1 -->
<g id="edge1" class="edge">
<title>Node2&#45;&gt;Node1</title>
<path fill="none" stroke="black" d="M117.71,-16C125.83,-16 134.05,-16 141.91,-16"/>
<polygon fill="black" stroke="black" points="117.84,-12.5 107.84,-16 117.84,-19.5 117.84,-12.5"/>
</g>
<!-- Node1&#45;&gt;Node3 -->
<g id="edge2" class="edge">
<title>Node1&#45;&gt;Node3</title>
<path fill="none" stroke="black" d="M254.47,-16C262.4,-16 270.5,-16 278.32,-16"/>
<polygon fill="black" stroke="black" points="254.51,-12.5 244.51,-16 254.51,-19.5 254.51,-12.5"/>
</g>
</g>
</svg>
