<?xml version="1.0" encoding="UTF-8" standalone="no"?>
<!DOCTYPE svg PUBLIC "-//W3C//DTD SVG 1.1//EN"
 "http://www.w3.org/Graphics/SVG/1.1/DTD/svg11.dtd">
<!-- Generated by graphviz version 15.1.1 (20260805.0921)
 -->
<!-- Title: ARM_MPU_Disable Pages: 1 -->
<svg width="198pt" height="158pt"
 viewBox="0.00 0.00 198.00 158.00" xmlns="http://www.w3.org/2000/svg" xmlns:xlink="http://www.w3.org/1999/xlink">
<g id="graph0" class="graph" transform="scale(1 1) rotate(0) translate(4 154)">
<title>ARM_MPU_Disable</title>
<!-- Node1 -->
<g id="Node000001" class="node">
<title>Node1</title>
<g id="a_Node000001"><a xlink:title=" ">
<polygon fill="#999999" stroke="#666666" points="104.5,-76 0,-76 0,-56 104.5,-56 104.5,-76"/>
<text xml:space="preserve" text-anchor="middle" x="52.25" y="-62.5" font-family="Helvetica,sans-Serif" font-size="10.00">ARM_MPU_Disable</text>
</a>
</g>
</g>
<!-- Node1&#45;&gt;Node1 -->
<g id="edge7_Node000001_Node000001" class="edge">
<title>Node1&#45;&gt;Node1</title>
<g id="a_edge7_Node000001_Node000001"><a xlink:title=" ">
<path fill="none" stroke="#63b8ff" d="M34.34,-76.34C26.68,-84.98 32.65,-94 52.25,-94 62.97,-94 69.61,-91.3 72.18,-87.44"/>
<polygon fill="#63b8ff" stroke="#63b8ff" points="75.66,-87.04 70.43,-77.83 68.78,-88.29 75.66,-87.04"/>
</a>
</g>
</g>
<!-- Node2 -->
<g id="Node000002" class="node">
<title>Node2</title>
<g id="a_Node000002"><a xlink:href="group___c_m_s_i_s___core___instruction_interface.html#gab1ea24daaaaee9c828f90cbca330cb5e" target="_top" xlink:title="Data Memory Barrier.">
<polygon fill="white" stroke="#666666" points="189.5,-132 140.5,-132 140.5,-112 189.5,-112 189.5,-132"/>
<text xml:space="preserve" text-anchor="middle" x="165" y="-118.5" font-family="Helvetica,sans-Serif" font-size="10.00">__DMB</text>
</a>
</g>
</g>
<!-- Node1&#45;&gt;Node2 -->
<g id="edge1_Node000001_Node000002" class="edge">
<title>Node1&#45;&gt;Node2</title>
<g id="a_edge1_Node000001_Node000002"><a xlink:title=" ">
<path fill="none" stroke="#63b8ff" d="M73.82,-76.4C90.53,-84.85 114.34,-96.89 133.3,-106.48"/>
<polygon fill="#63b8ff" stroke="#63b8ff" points="131.68,-109.58 142.19,-110.97 134.84,-103.33 131.68,-109.58"/>
</a>
</g>
</g>
<!-- Node3 -->
<g id="Node000003" class="node">
<title>Node3</title>
<g id="a_Node000003"><a xlink:href="group___c_m_s_i_s___core___instruction_interface.html#ga7fe277f5385d23b9c44b2cbda1577ce9" target="_top" xlink:title="Data Synchronization Barrier.">
<polygon fill="white" stroke="#666666" points="188.75,-76 141.25,-76 141.25,-56 188.75,-56 188.75,-76"/>
<text xml:space="preserve" text-anchor="middle" x="165" y="-62.5" font-family="Helvetica,sans-Serif" font-size="10.00">__DSB</text>
</a>
</g>
</g>
<!-- Node1&#45;&gt;Node3 -->
<g id="edge3_Node000001_Node000003" class="edge">
<title>Node1&#45;&gt;Node3</title>
<g id="a_edge3_Node000001_Node000003"><a xlink:title=" ">
<path fill="none" stroke="#63b8ff" d="M104.73,-66C113.14,-66 121.66,-66 129.52,-66"/>
<polygon fill="#63b8ff" stroke="#63b8ff" points="129.34,-69.5 139.34,-66 129.34,-62.5 129.34,-69.5"/>
</a>
</g>
</g>
<!-- Node4 -->
<g id="Node000004" class="node">
<title>Node4</title>
<g id="a_Node000004"><a xlink:href="group___c_m_s_i_s___core___instruction_interface.html#gae26c2b3961e702aeabc24d4984ebd369" target="_top" xlink:title="Instruction Synchronization Barrier.">
<polygon fill="white" stroke="#666666" points="186.5,-20 143.5,-20 143.5,0 186.5,0 186.5,-20"/>
<text xml:space="preserve" text-anchor="middle" x="165" y="-6.5" font-family="Helvetica,sans-Serif" font-size="10.00">__ISB</text>
</a>
</g>
</g>
<!-- Node1&#45;&gt;Node4 -->
<g id="edge5_Node000001_Node000004" class="edge">
<title>Node1&#45;&gt;Node4</title>
<g id="a_edge5_Node000001_Node000004"><a xlink:title=" ">
<path fill="none" stroke="#63b8ff" d="M73.82,-55.6C90.53,-47.15 114.34,-35.11 133.3,-25.52"/>
<polygon fill="#63b8ff" stroke="#63b8ff" points="134.84,-28.67 142.19,-21.03 131.68,-22.42 134.84,-28.67"/>
</a>
</g>
</g>
<!-- Node2&#45;&gt;Node2 -->
<g id="edge2_Node000002_Node000002" class="edge">
<title>Node2&#45;&gt;Node2</title>
<g id="a_edge2_Node000002_Node000002"><a xlink:title=" ">
<path fill="none" stroke="#63b8ff" d="M147.09,-132.34C139.43,-140.98 145.4,-150 165,-150 175.72,-150 182.36,-147.3 184.93,-143.44"/>
<polygon fill="#63b8ff" stroke="#63b8ff" points="188.41,-143.04 183.18,-133.83 181.53,-144.29 188.41,-143.04"/>
</a>
</g>
</g>
<!-- Node3&#45;&gt;Node3 -->
<g id="edge4_Node000003_Node000003" class="edge">
<title>Node3&#45;&gt;Node3</title>
<g id="a_edge4_Node000003_Node000003"><a xlink:title=" ">
<path fill="none" stroke="#63b8ff" d="M147.09,-76.34C139.43,-84.98 145.4,-94 165,-94 175.72,-94 182.36,-91.3 184.93,-87.44"/>
<polygon fill="#63b8ff" stroke="#63b8ff" points="188.41,-87.04 183.18,-77.83 181.53,-88.29 188.41,-87.04"/>
</a>
</g>
</g>
<!-- Node4&#45;&gt;Node4 -->
<g id="edge6_Node000004_Node000004" class="edge">
<title>Node4&#45;&gt;Node4</title>
<g id="a_edge6_Node000004_Node000004"><a xlink:title=" ">
<path fill="none" stroke="#63b8ff" d="M147.09,-20.34C139.43,-28.98 145.4,-38 165,-38 175.72,-38 182.36,-35.3 184.93,-31.44"/>
<polygon fill="#63b8ff" stroke="#63b8ff" points="188.41,-31.04 183.18,-21.83 181.53,-32.29 188.41,-31.04"/>
</a>
</g>
</g>
</g>
</svg>
