<?xml version="1.0" encoding="UTF-8" standalone="no"?>
<!DOCTYPE svg PUBLIC "-//W3C//DTD SVG 1.1//EN"
 "http://www.w3.org/Graphics/SVG/1.1/DTD/svg11.dtd">
<!-- Generated by graphviz version 15.1.1 (20260805.0921)
 -->
<!-- Title: T32A1_Interrupt_Enable Pages: 1 -->
<svg width="298pt" height="270pt"
 viewBox="0.00 0.00 298.00 270.00" xmlns="http://www.w3.org/2000/svg" xmlns:xlink="http://www.w3.org/1999/xlink">
<g id="graph0" class="graph" transform="scale(1 1) rotate(0) translate(4 266)">
<title>T32A1_Interrupt_Enable</title>
<!-- Node1 -->
<g id="Node000001" class="node">
<title>Node1</title>
<g id="a_Node000001"><a xlink:title="Handles interrupt for T32A1 Timer C.">
<polygon fill="#999999" stroke="#666666" points="121,-132 0,-132 0,-112 121,-112 121,-132"/>
<text xml:space="preserve" text-anchor="middle" x="60.5" y="-118.5" font-family="Helvetica,sans-Serif" font-size="10.00">T32A1_Interrupt_Enable</text>
</a>
</g>
</g>
<!-- Node1&#45;&gt;Node1 -->
<g id="edge11_Node000001_Node000001" class="edge">
<title>Node1&#45;&gt;Node1</title>
<g id="a_edge11_Node000001_Node000001"><a xlink:title=" ">
<path fill="none" stroke="#63b8ff" d="M34.6,-132.34C23.53,-140.98 32.17,-150 60.5,-150 76,-150 85.6,-147.3 89.31,-143.44"/>
<polygon fill="#63b8ff" stroke="#63b8ff" points="92.7,-142.59 86.78,-133.8 85.93,-144.36 92.7,-142.59"/>
</a>
</g>
</g>
<!-- Node2 -->
<g id="Node000002" class="node">
<title>Node2</title>
<g id="a_Node000002"><a xlink:href="group___c_m_s_i_s___core___reg_acc_functions.html#ga2299877e4ba3e162ca9dbabd6e0abef6" target="_top" xlink:title="Disable IRQ Interrupts.">
<polygon fill="white" stroke="#666666" points="260,-244 187,-244 187,-224 260,-224 260,-244"/>
<text xml:space="preserve" text-anchor="middle" x="223.5" y="-230.5" font-family="Helvetica,sans-Serif" font-size="10.00">__disable_irq</text>
</a>
</g>
</g>
<!-- Node1&#45;&gt;Node2 -->
<g id="edge1_Node000001_Node000002" class="edge">
<title>Node1&#45;&gt;Node2</title>
<g id="a_edge1_Node000001_Node000002"><a xlink:title=" ">
<path fill="none" stroke="#63b8ff" d="M69.22,-132.34C84.08,-151.51 118.6,-192.64 157,-215 162.77,-218.36 169.17,-221.16 175.65,-223.48"/>
<polygon fill="#63b8ff" stroke="#63b8ff" points="174.5,-226.79 185.09,-226.5 176.63,-220.12 174.5,-226.79"/>
</a>
</g>
</g>
<!-- Node3 -->
<g id="Node000003" class="node">
<title>Node3</title>
<g id="a_Node000003"><a xlink:href="group___c_m_s_i_s___core___reg_acc_functions.html#gae84bf4e95944e61937f4ed2453e5ef23" target="_top" xlink:title="Enable IRQ Interrupts.">
<polygon fill="white" stroke="#666666" points="258.88,-188 188.12,-188 188.12,-168 258.88,-168 258.88,-188"/>
<text xml:space="preserve" text-anchor="middle" x="223.5" y="-174.5" font-family="Helvetica,sans-Serif" font-size="10.00">__enable_irq</text>
</a>
</g>
</g>
<!-- Node1&#45;&gt;Node3 -->
<g id="edge3_Node000001_Node000003" class="edge">
<title>Node1&#45;&gt;Node3</title>
<g id="a_edge3_Node000001_Node000003"><a xlink:title=" ">
<path fill="none" stroke="#63b8ff" d="M86.42,-132.34C105.56,-140.12 132.74,-150.8 157,-159 163.32,-161.14 170.04,-163.26 176.67,-165.26"/>
<polygon fill="#63b8ff" stroke="#63b8ff" points="175.62,-168.6 186.2,-168.07 177.6,-161.88 175.62,-168.6"/>
</a>
</g>
</g>
<!-- Node4 -->
<g id="Node000004" class="node">
<title>Node4</title>
<g id="a_Node000004"><a xlink:href="group___c_m_s_i_s___core___n_v_i_c_functions.html#ga562a86dbdf14827d0fee8fdafb04d191" target="_top" xlink:title="Clear Pending Interrupt.">
<polygon fill="white" stroke="#666666" points="290,-132 157,-132 157,-112 290,-112 290,-132"/>
<text xml:space="preserve" text-anchor="middle" x="223.5" y="-118.5" font-family="Helvetica,sans-Serif" font-size="10.00">__NVIC_ClearPendingIRQ</text>
</a>
</g>
</g>
<!-- Node1&#45;&gt;Node4 -->
<g id="edge5_Node000001_Node000004" class="edge">
<title>Node1&#45;&gt;Node4</title>
<g id="a_edge5_Node000001_Node000004"><a xlink:title=" ">
<path fill="none" stroke="#63b8ff" d="M121.45,-122C129.23,-122 137.28,-122 145.29,-122"/>
<polygon fill="#63b8ff" stroke="#63b8ff" points="145.04,-125.5 155.04,-122 145.04,-118.5 145.04,-125.5"/>
</a>
</g>
</g>
<!-- Node5 -->
<g id="Node000005" class="node">
<title>Node5</title>
<g id="a_Node000005"><a xlink:href="group___c_m_s_i_s___core___n_v_i_c_functions.html#ga71227e1376cde11eda03fcb62f1b33ea" target="_top" xlink:title="Enable Interrupt.">
<polygon fill="white" stroke="#666666" points="275.75,-76 171.25,-76 171.25,-56 275.75,-56 275.75,-76"/>
<text xml:space="preserve" text-anchor="middle" x="223.5" y="-62.5" font-family="Helvetica,sans-Serif" font-size="10.00">__NVIC_EnableIRQ</text>
</a>
</g>
</g>
<!-- Node1&#45;&gt;Node5 -->
<g id="edge7_Node000001_Node000005" class="edge">
<title>Node1&#45;&gt;Node5</title>
<g id="a_edge7_Node000001_Node000005"><a xlink:title=" ">
<path fill="none" stroke="#63b8ff" d="M91.41,-111.6C116.85,-102.75 153.65,-89.95 181.78,-80.16"/>
<polygon fill="#63b8ff" stroke="#63b8ff" points="182.76,-83.53 191.05,-76.94 180.46,-76.92 182.76,-83.53"/>
</a>
</g>
</g>
<!-- Node6 -->
<g id="Node000006" class="node">
<title>Node6</title>
<g id="a_Node000006"><a xlink:href="group___c_m_s_i_s___core___n_v_i_c_functions.html#ga505338e23563a9c074910fb14e7d45fd" target="_top" xlink:title="Set Interrupt Priority.">
<polygon fill="white" stroke="#666666" points="274.62,-20 172.38,-20 172.38,0 274.62,0 274.62,-20"/>
<text xml:space="preserve" text-anchor="middle" x="223.5" y="-6.5" font-family="Helvetica,sans-Serif" font-size="10.00">__NVIC_SetPriority</text>
</a>
</g>
</g>
<!-- Node1&#45;&gt;Node6 -->
<g id="edge9_Node000001_Node000006" class="edge">
<title>Node1&#45;&gt;Node6</title>
<g id="a_edge9_Node000001_Node000006"><a xlink:title=" ">
<path fill="none" stroke="#63b8ff" d="M73.42,-111.68C91.06,-96.61 125.47,-68.11 157,-47 168.22,-39.49 181.05,-32.01 192.37,-25.77"/>
<polygon fill="#63b8ff" stroke="#63b8ff" points="193.8,-28.97 200.92,-21.13 190.46,-22.82 193.8,-28.97"/>
</a>
</g>
</g>
<!-- Node2&#45;&gt;Node2 -->
<g id="edge2_Node000002_Node000002" class="edge">
<title>Node2&#45;&gt;Node2</title>
<g id="a_edge2_Node000002_Node000002"><a xlink:title=" ">
<path fill="none" stroke="#63b8ff" d="M197.6,-244.34C186.53,-252.98 195.17,-262 223.5,-262 239,-262 248.6,-259.3 252.31,-255.44"/>
<polygon fill="#63b8ff" stroke="#63b8ff" points="255.7,-254.59 249.78,-245.8 248.93,-256.36 255.7,-254.59"/>
</a>
</g>
</g>
<!-- Node3&#45;&gt;Node3 -->
<g id="edge4_Node000003_Node000003" class="edge">
<title>Node3&#45;&gt;Node3</title>
<g id="a_edge4_Node000003_Node000003"><a xlink:title=" ">
<path fill="none" stroke="#63b8ff" d="M197.6,-188.34C186.53,-196.98 195.17,-206 223.5,-206 239,-206 248.6,-203.3 252.31,-199.44"/>
<polygon fill="#63b8ff" stroke="#63b8ff" points="255.7,-198.59 249.78,-189.8 248.93,-200.36 255.7,-198.59"/>
</a>
</g>
</g>
<!-- Node4&#45;&gt;Node4 -->
<g id="edge6_Node000004_Node000004" class="edge">
<title>Node4&#45;&gt;Node4</title>
<g id="a_edge6_Node000004_Node000004"><a xlink:title=" ">
<path fill="none" stroke="#63b8ff" d="M197.6,-132.34C186.53,-140.98 195.17,-150 223.5,-150 239,-150 248.6,-147.3 252.31,-143.44"/>
<polygon fill="#63b8ff" stroke="#63b8ff" points="255.7,-142.59 249.78,-133.8 248.93,-144.36 255.7,-142.59"/>
</a>
</g>
</g>
<!-- Node5&#45;&gt;Node5 -->
<g id="edge8_Node000005_Node000005" class="edge">
<title>Node5&#45;&gt;Node5</title>
<g id="a_edge8_Node000005_Node000005"><a xlink:title=" ">
<path fill="none" stroke="#63b8ff" d="M197.6,-76.34C186.53,-84.98 195.17,-94 223.5,-94 239,-94 248.6,-91.3 252.31,-87.44"/>
<polygon fill="#63b8ff" stroke="#63b8ff" points="255.7,-86.59 249.78,-77.8 248.93,-88.36 255.7,-86.59"/>
</a>
</g>
</g>
<!-- Node6&#45;&gt;Node6 -->
<g id="edge10_Node000006_Node000006" class="edge">
<title>Node6&#45;&gt;Node6</title>
<g id="a_edge10_Node000006_Node000006"><a xlink:title=" ">
<path fill="none" stroke="#63b8ff" d="M197.6,-20.34C186.53,-28.98 195.17,-38 223.5,-38 239,-38 248.6,-35.3 252.31,-31.44"/>
<polygon fill="#63b8ff" stroke="#63b8ff" points="255.7,-30.59 249.78,-21.8 248.93,-32.36 255.7,-30.59"/>
</a>
</g>
</g>
</g>
</svg>
