<?xml version="1.0" encoding="UTF-8" standalone="no"?>
<!DOCTYPE svg PUBLIC "-//W3C//DTD SVG 1.1//EN"
 "http://www.w3.org/Graphics/SVG/1.1/DTD/svg11.dtd">
<!-- Generated by graphviz version 15.1.1 (20260805.0921)
 -->
<!-- Title: src/drivers/timer32A.c Pages: 1 -->
<svg width="226pt" height="140pt"
 viewBox="0.00 0.00 226.00 140.00" xmlns="http://www.w3.org/2000/svg" xmlns:xlink="http://www.w3.org/1999/xlink">
<g id="graph0" class="graph" transform="scale(1 1) rotate(0) translate(4 136)">
<title>src/drivers/timer32A.c</title>
<!-- Node1 -->
<g id="Node000001" class="node">
<title>Node1</title>
<g id="a_Node000001"><a xlink:title="Timer32A driver implementation for TMPM4Ky microcontrollers.">
<polygon fill="#999999" stroke="#666666" points="125.12,-132 13.13,-132 13.13,-112 125.12,-112 125.12,-132"/>
<text xml:space="preserve" text-anchor="middle" x="69.12" y="-118.5" font-family="Helvetica,sans-Serif" font-size="10.00">src/drivers/timer32A.c</text>
</a>
</g>
</g>
<!-- Node2 -->
<g id="Node000002" class="node">
<title>Node2</title>
<g id="a_Node000002"><a xlink:href="timer32_a_8h.html" target="_top" xlink:title="Timer32A driver for TMPM4Ky microcontrollers.">
<polygon fill="white" stroke="#666666" points="136.75,-76 73.5,-76 73.5,-56 136.75,-56 136.75,-76"/>
<text xml:space="preserve" text-anchor="middle" x="105.12" y="-62.5" font-family="Helvetica,sans-Serif" font-size="10.00">timer32A.h</text>
</a>
</g>
</g>
<!-- Node1&#45;&gt;Node2 -->
<g id="edge1_Node000001_Node000002" class="edge">
<title>Node1&#45;&gt;Node2</title>
<g id="a_edge1_Node000001_Node000002"><a xlink:title=" ">
<path fill="none" stroke="#63b8ff" d="M75.4,-111.59C80.14,-104.47 86.82,-94.45 92.65,-85.72"/>
<polygon fill="#63b8ff" stroke="#63b8ff" points="95.45,-87.82 98.09,-77.56 89.63,-83.94 95.45,-87.82"/>
</a>
</g>
</g>
<!-- Node6 -->
<g id="Node000006" class="node">
<title>Node6</title>
<g id="a_Node000006"><a xlink:href="gpio_8h.html" target="_top" xlink:title="GPIO driver for TMPM4Ky microcontrollers.">
<polygon fill="white" stroke="#666666" points="55.25,-76 13,-76 13,-56 55.25,-56 55.25,-76"/>
<text xml:space="preserve" text-anchor="middle" x="34.12" y="-62.5" font-family="Helvetica,sans-Serif" font-size="10.00">gpio.h</text>
</a>
</g>
</g>
<!-- Node1&#45;&gt;Node6 -->
<g id="edge5_Node000001_Node000006" class="edge">
<title>Node1&#45;&gt;Node6</title>
<g id="a_edge5_Node000001_Node000006"><a xlink:title=" ">
<path fill="none" stroke="#63b8ff" d="M63.03,-111.59C58.41,-104.47 51.92,-94.45 46.26,-85.72"/>
<polygon fill="#63b8ff" stroke="#63b8ff" points="49.35,-84.06 40.97,-77.57 43.48,-87.86 49.35,-84.06"/>
</a>
</g>
</g>
<!-- Node3 -->
<g id="Node000003" class="node">
<title>Node3</title>
<g id="a_Node000003"><a xlink:title=" ">
<polygon fill="#e0e0e0" stroke="#999999" points="143.88,-20 66.38,-20 66.38,0 143.88,0 143.88,-20"/>
<text xml:space="preserve" text-anchor="middle" x="105.12" y="-6.5" font-family="Helvetica,sans-Serif" font-size="10.00">TMPM4KyA.h</text>
</a>
</g>
</g>
<!-- Node2&#45;&gt;Node3 -->
<g id="edge2_Node000002_Node000003" class="edge">
<title>Node2&#45;&gt;Node3</title>
<g id="a_edge2_Node000002_Node000003"><a xlink:title=" ">
<path fill="none" stroke="#63b8ff" d="M105.12,-55.59C105.12,-49.01 105.12,-39.96 105.12,-31.73"/>
<polygon fill="#63b8ff" stroke="#63b8ff" points="108.63,-31.81 105.13,-21.81 101.63,-31.81 108.63,-31.81"/>
</a>
</g>
</g>
<!-- Node4 -->
<g id="Node000004" class="node">
<title>Node4</title>
<g id="a_Node000004"><a xlink:title=" ">
<polygon fill="#e0e0e0" stroke="#999999" points="48.25,-20 0,-20 0,0 48.25,0 48.25,-20"/>
<text xml:space="preserve" text-anchor="middle" x="24.12" y="-6.5" font-family="Helvetica,sans-Serif" font-size="10.00">stdint.h</text>
</a>
</g>
</g>
<!-- Node2&#45;&gt;Node4 -->
<g id="edge3_Node000002_Node000004" class="edge">
<title>Node2&#45;&gt;Node4</title>
<g id="a_edge3_Node000002_Node000004"><a xlink:title=" ">
<path fill="none" stroke="#63b8ff" d="M91.02,-55.59C79.13,-47.67 61.86,-36.16 47.85,-26.82"/>
<polygon fill="#63b8ff" stroke="#63b8ff" points="49.87,-23.95 39.6,-21.32 45.98,-29.78 49.87,-23.95"/>
</a>
</g>
</g>
<!-- Node5 -->
<g id="Node000005" class="node">
<title>Node5</title>
<g id="a_Node000005"><a xlink:title=" ">
<polygon fill="#e0e0e0" stroke="#999999" points="218,-20 162.25,-20 162.25,0 218,0 218,-20"/>
<text xml:space="preserve" text-anchor="middle" x="190.12" y="-6.5" font-family="Helvetica,sans-Serif" font-size="10.00">stdbool.h</text>
</a>
</g>
</g>
<!-- Node2&#45;&gt;Node5 -->
<g id="edge4_Node000002_Node000005" class="edge">
<title>Node2&#45;&gt;Node5</title>
<g id="a_edge4_Node000002_Node000005"><a xlink:title=" ">
<path fill="none" stroke="#63b8ff" d="M119.93,-55.59C132.53,-47.59 150.88,-35.93 165.66,-26.54"/>
<polygon fill="#63b8ff" stroke="#63b8ff" points="167.36,-29.61 173.93,-21.29 163.61,-23.7 167.36,-29.61"/>
</a>
</g>
</g>
<!-- Node6&#45;&gt;Node3 -->
<g id="edge6_Node000006_Node000003" class="edge">
<title>Node6&#45;&gt;Node3</title>
<g id="a_edge6_Node000006_Node000003"><a xlink:title=" ">
<path fill="none" stroke="#63b8ff" d="M46.49,-55.59C56.77,-47.77 71.64,-36.46 83.84,-27.19"/>
<polygon fill="#63b8ff" stroke="#63b8ff" points="85.85,-30.05 91.69,-21.21 81.62,-24.48 85.85,-30.05"/>
</a>
</g>
</g>
<!-- Node6&#45;&gt;Node4 -->
<g id="edge7_Node000006_Node000004" class="edge">
<title>Node6&#45;&gt;Node4</title>
<g id="a_edge7_Node000006_Node000004"><a xlink:title=" ">
<path fill="none" stroke="#63b8ff" d="M32.38,-55.59C31.15,-48.93 29.45,-39.75 27.91,-31.44"/>
<polygon fill="#63b8ff" stroke="#63b8ff" points="31.38,-30.98 26.12,-21.79 24.5,-32.26 31.38,-30.98"/>
</a>
</g>
</g>
</g>
</svg>
