<?xml version="1.0" encoding="UTF-8" standalone="no"?>
<!DOCTYPE svg PUBLIC "-//W3C//DTD SVG 1.1//EN"
 "http://www.w3.org/Graphics/SVG/1.1/DTD/svg11.dtd">
<!-- Generated by graphviz version 15.1.1 (20260805.0921)
 -->
<!-- Title: UART_SendUint Pages: 1 -->
<svg width="356pt" height="74pt"
 viewBox="0.00 0.00 356.00 74.00" xmlns="http://www.w3.org/2000/svg" xmlns:xlink="http://www.w3.org/1999/xlink">
<g id="graph0" class="graph" transform="scale(1 1) rotate(0) translate(4 70)">
<title>UART_SendUint</title>
<!-- Node1 -->
<g id="Node000001" class="node">
<title>Node1</title>
<g id="a_Node000001"><a xlink:title="Transmits an unsigned 16&#45;bit value as decimal ASCII (blocking).">
<polygon fill="#999999" stroke="#666666" points="88.75,-48 0,-48 0,-28 88.75,-28 88.75,-48"/>
<text xml:space="preserve" text-anchor="middle" x="44.38" y="-34.5" font-family="Helvetica,sans-Serif" font-size="10.00">UART_SendUint</text>
</a>
</g>
</g>
<!-- Node1&#45;&gt;Node1 -->
<g id="edge6_Node000001_Node000001" class="edge">
<title>Node1&#45;&gt;Node1</title>
<g id="a_edge6_Node000001_Node000001"><a xlink:title=" ">
<path fill="none" stroke="#63b8ff" d="M23.96,-48.34C15.23,-56.98 22.04,-66 44.38,-66 56.59,-66 64.16,-63.3 67.09,-59.44"/>
<polygon fill="#63b8ff" stroke="#63b8ff" points="70.55,-58.91 65.1,-49.82 63.69,-60.32 70.55,-58.91"/>
</a>
</g>
</g>
<!-- Node2 -->
<g id="Node000002" class="node">
<title>Node2</title>
<g id="a_Node000002"><a xlink:href="uart_8c.html#a3863dd104ea16c4f4c369657edf48993" target="_top" xlink:title="Transmits one byte over UART (blocking).">
<polygon fill="white" stroke="#666666" points="348,-48 257,-48 257,-28 348,-28 348,-48"/>
<text xml:space="preserve" text-anchor="middle" x="302.5" y="-34.5" font-family="Helvetica,sans-Serif" font-size="10.00">UART_SendByte</text>
</a>
</g>
</g>
<!-- Node1&#45;&gt;Node2 -->
<g id="edge1_Node000001_Node000002" class="edge">
<title>Node1&#45;&gt;Node2</title>
<g id="a_edge1_Node000001_Node000002"><a xlink:title=" ">
<path fill="none" stroke="#63b8ff" d="M88.97,-43.84C100.57,-45.15 113.12,-46.34 124.75,-47 167.46,-49.41 178.29,-49.38 221,-47 228.92,-46.56 237.26,-45.87 245.45,-45.08"/>
<polygon fill="#63b8ff" stroke="#63b8ff" points="245.78,-48.56 255.36,-44.04 245.05,-41.6 245.78,-48.56"/>
</a>
</g>
</g>
<!-- Node3 -->
<g id="Node000003" class="node">
<title>Node3</title>
<g id="a_Node000003"><a xlink:href="uart_8c.html#a3d54817ce5409ef5576568ca41cce6ed" target="_top" xlink:title="Transmits a NUL&#45;terminated string (blocking).">
<polygon fill="white" stroke="#666666" points="221,-20 124.75,-20 124.75,0 221,0 221,-20"/>
<text xml:space="preserve" text-anchor="middle" x="172.88" y="-6.5" font-family="Helvetica,sans-Serif" font-size="10.00">UART_SendString</text>
</a>
</g>
</g>
<!-- Node1&#45;&gt;Node3 -->
<g id="edge3_Node000001_Node000003" class="edge">
<title>Node1&#45;&gt;Node3</title>
<g id="a_edge3_Node000001_Node000003"><a xlink:title=" ">
<path fill="none" stroke="#63b8ff" d="M88.91,-28.36C96.87,-26.6 105.29,-24.74 113.6,-22.9"/>
<polygon fill="#63b8ff" stroke="#63b8ff" points="114.32,-26.32 123.32,-20.75 112.8,-19.49 114.32,-26.32"/>
</a>
</g>
</g>
<!-- Node2&#45;&gt;Node2 -->
<g id="edge2_Node000002_Node000002" class="edge">
<title>Node2&#45;&gt;Node2</title>
<g id="a_edge2_Node000002_Node000002"><a xlink:title=" ">
<path fill="none" stroke="#63b8ff" d="M281.9,-48.34C273.1,-56.98 279.97,-66 302.5,-66 314.82,-66 322.46,-63.3 325.41,-59.44"/>
<polygon fill="#63b8ff" stroke="#63b8ff" points="328.87,-58.9 323.4,-49.82 322.02,-60.32 328.87,-58.9"/>
</a>
</g>
</g>
<!-- Node3&#45;&gt;Node2 -->
<g id="edge4_Node000003_Node000002" class="edge">
<title>Node3&#45;&gt;Node2</title>
<g id="a_edge4_Node000003_Node000002"><a xlink:title=" ">
<path fill="none" stroke="#63b8ff" d="M221.4,-20.43C229.39,-22.18 237.74,-24.01 245.92,-25.81"/>
<polygon fill="#63b8ff" stroke="#63b8ff" points="244.9,-29.17 255.42,-27.89 246.4,-22.33 244.9,-29.17"/>
</a>
</g>
</g>
<!-- Node3&#45;&gt;Node3 -->
<g id="edge5_Node000003_Node000003" class="edge">
<title>Node3&#45;&gt;Node3</title>
<g id="a_edge5_Node000003_Node000003"><a xlink:title=" ">
<path fill="none" stroke="#63b8ff" d="M152.46,-20.34C143.73,-28.98 150.54,-38 172.88,-38 185.09,-38 192.66,-35.3 195.59,-31.44"/>
<polygon fill="#63b8ff" stroke="#63b8ff" points="199.05,-30.91 193.6,-21.82 192.19,-32.32 199.05,-30.91"/>
</a>
</g>
</g>
</g>
</svg>
