<?xml version="1.0" encoding="UTF-8" standalone="no"?>
<!DOCTYPE svg PUBLIC "-//W3C//DTD SVG 1.1//EN"
 "http://www.w3.org/Graphics/SVG/1.1/DTD/svg11.dtd">
<!-- Generated by graphviz version 15.1.1 (20260805.0921)
 -->
<!-- Title: UART_SendInt Pages: 1 -->
<svg width="474pt" height="112pt"
 viewBox="0.00 0.00 474.00 112.00" xmlns="http://www.w3.org/2000/svg" xmlns:xlink="http://www.w3.org/1999/xlink">
<g id="graph0" class="graph" transform="scale(1 1) rotate(0) translate(4 108)">
<title>UART_SendInt</title>
<!-- Node1 -->
<g id="Node000001" class="node">
<title>Node1</title>
<g id="a_Node000001"><a xlink:title="Transmits a signed value as decimal ASCII text (blocking).">
<polygon fill="#999999" stroke="#666666" points="82,-86 0,-86 0,-66 82,-66 82,-86"/>
<text xml:space="preserve" text-anchor="middle" x="41" y="-72.5" font-family="Helvetica,sans-Serif" font-size="10.00">UART_SendInt</text>
</a>
</g>
</g>
<!-- Node1&#45;&gt;Node1 -->
<g id="edge3_Node000001_Node000001" class="edge">
<title>Node1&#45;&gt;Node1</title>
<g id="a_edge3_Node000001_Node000001"><a xlink:title=" ">
<path fill="none" stroke="#63b8ff" d="M21.71,-86.34C13.47,-94.98 19.9,-104 41,-104 52.54,-104 59.69,-101.3 62.45,-97.44"/>
<polygon fill="#63b8ff" stroke="#63b8ff" points="65.93,-96.97 60.58,-87.82 59.06,-98.31 65.93,-96.97"/>
</a>
</g>
</g>
<!-- Node2 -->
<g id="Node000002" class="node">
<title>Node2</title>
<g id="a_Node000002"><a xlink:href="uart_8c.html#a3863dd104ea16c4f4c369657edf48993" target="_top" xlink:title="Transmits one byte over UART (blocking).">
<polygon fill="white" stroke="#666666" points="466,-76 375,-76 375,-56 466,-56 466,-76"/>
<text xml:space="preserve" text-anchor="middle" x="420.5" y="-62.5" font-family="Helvetica,sans-Serif" font-size="10.00">UART_SendByte</text>
</a>
</g>
</g>
<!-- Node1&#45;&gt;Node2 -->
<g id="edge1_Node000001_Node000002" class="edge">
<title>Node1&#45;&gt;Node2</title>
<g id="a_edge1_Node000001_Node000002"><a xlink:title=" ">
<path fill="none" stroke="#63b8ff" d="M82.15,-81.65C93.7,-83.03 106.33,-84.31 118,-85 203.58,-90.05 302.8,-80.9 363.35,-73.63"/>
<polygon fill="#63b8ff" stroke="#63b8ff" points="363.56,-77.13 373.05,-72.44 362.7,-70.19 363.56,-77.13"/>
</a>
</g>
</g>
<!-- Node3 -->
<g id="Node000003" class="node">
<title>Node3</title>
<g id="a_Node000003"><a xlink:href="uart_8c.html#a40d4b3a4875e8d00631ff0bff5e1f176" target="_top" xlink:title="Transmits an unsigned 16&#45;bit value as decimal ASCII (blocking).">
<polygon fill="white" stroke="#666666" points="206.75,-58 118,-58 118,-38 206.75,-38 206.75,-58"/>
<text xml:space="preserve" text-anchor="middle" x="162.38" y="-44.5" font-family="Helvetica,sans-Serif" font-size="10.00">UART_SendUint</text>
</a>
</g>
</g>
<!-- Node1&#45;&gt;Node3 -->
<g id="edge4_Node000001_Node000003" class="edge">
<title>Node1&#45;&gt;Node3</title>
<g id="a_edge4_Node000001_Node000003"><a xlink:title=" ">
<path fill="none" stroke="#63b8ff" d="M82.41,-66.52C90.23,-64.69 98.53,-62.74 106.71,-60.82"/>
<polygon fill="#63b8ff" stroke="#63b8ff" points="107.32,-64.27 116.26,-58.58 105.72,-57.46 107.32,-64.27"/>
</a>
</g>
</g>
<!-- Node2&#45;&gt;Node2 -->
<g id="edge2_Node000002_Node000002" class="edge">
<title>Node2&#45;&gt;Node2</title>
<g id="a_edge2_Node000002_Node000002"><a xlink:title=" ">
<path fill="none" stroke="#63b8ff" d="M399.9,-76.34C391.1,-84.98 397.97,-94 420.5,-94 432.82,-94 440.46,-91.3 443.41,-87.44"/>
<polygon fill="#63b8ff" stroke="#63b8ff" points="446.87,-86.9 441.4,-77.82 440.02,-88.32 446.87,-86.9"/>
</a>
</g>
</g>
<!-- Node3&#45;&gt;Node2 -->
<g id="edge5_Node000003_Node000002" class="edge">
<title>Node3&#45;&gt;Node2</title>
<g id="a_edge5_Node000003_Node000002"><a xlink:title=" ">
<path fill="none" stroke="#63b8ff" d="M207.11,-51.07C250.28,-54.11 316.44,-58.76 363.44,-62.06"/>
<polygon fill="#63b8ff" stroke="#63b8ff" points="362.92,-65.53 373.14,-62.74 363.41,-58.55 362.92,-65.53"/>
</a>
</g>
</g>
<!-- Node3&#45;&gt;Node3 -->
<g id="edge9_Node000003_Node000003" class="edge">
<title>Node3&#45;&gt;Node3</title>
<g id="a_edge9_Node000003_Node000003"><a xlink:title=" ">
<path fill="none" stroke="#63b8ff" d="M143.09,-58.34C134.85,-66.98 141.28,-76 162.38,-76 173.91,-76 181.06,-73.3 183.83,-69.44"/>
<polygon fill="#63b8ff" stroke="#63b8ff" points="187.3,-68.97 181.95,-59.82 180.43,-70.31 187.3,-68.97"/>
</a>
</g>
</g>
<!-- Node4 -->
<g id="Node000004" class="node">
<title>Node4</title>
<g id="a_Node000004"><a xlink:href="uart_8c.html#a3d54817ce5409ef5576568ca41cce6ed" target="_top" xlink:title="Transmits a NUL&#45;terminated string (blocking).">
<polygon fill="white" stroke="#666666" points="339,-20 242.75,-20 242.75,0 339,0 339,-20"/>
<text xml:space="preserve" text-anchor="middle" x="290.88" y="-6.5" font-family="Helvetica,sans-Serif" font-size="10.00">UART_SendString</text>
</a>
</g>
</g>
<!-- Node3&#45;&gt;Node4 -->
<g id="edge6_Node000003_Node000004" class="edge">
<title>Node3&#45;&gt;Node4</title>
<g id="a_edge6_Node000003_Node000004"><a xlink:title=" ">
<path fill="none" stroke="#63b8ff" d="M198.28,-37.52C212.52,-33.24 229.18,-28.23 244.35,-23.67"/>
<polygon fill="#63b8ff" stroke="#63b8ff" points="245.07,-27.11 253.64,-20.89 243.05,-20.41 245.07,-27.11"/>
</a>
</g>
</g>
<!-- Node4&#45;&gt;Node2 -->
<g id="edge7_Node000004_Node000002" class="edge">
<title>Node4&#45;&gt;Node2</title>
<g id="a_edge7_Node000004_Node000002"><a xlink:title=" ">
<path fill="none" stroke="#63b8ff" d="M315.58,-20.4C335.28,-29.05 363.56,-41.45 385.64,-51.14"/>
<polygon fill="#63b8ff" stroke="#63b8ff" points="383.97,-54.23 394.53,-55.05 386.78,-47.82 383.97,-54.23"/>
</a>
</g>
</g>
<!-- Node4&#45;&gt;Node4 -->
<g id="edge8_Node000004_Node000004" class="edge">
<title>Node4&#45;&gt;Node4</title>
<g id="a_edge8_Node000004_Node000004"><a xlink:title=" ">
<path fill="none" stroke="#63b8ff" d="M270.46,-20.34C261.73,-28.98 268.54,-38 290.88,-38 303.09,-38 310.66,-35.3 313.59,-31.44"/>
<polygon fill="#63b8ff" stroke="#63b8ff" points="317.05,-30.91 311.6,-21.82 310.19,-32.32 317.05,-30.91"/>
</a>
</g>
</g>
</g>
</svg>
